<svg width="61" height="40" viewBox="0 0 61 40" fill="none" xmlns="http://www.w3.org/2000/svg">
<rect x="0.75" y="0.5" width="59" height="39" rx="3.5" fill="#006FCF" stroke="#F3F3F3"/>
<path fill-rule="evenodd" clip-rule="evenodd" d="M12.5225 28.8937V20.6592H22.1676L23.2025 21.8787L24.2715 20.6592H59.2811V28.3258C59.2811 28.3258 58.3655 28.8855 57.3066 28.8937H37.9211L36.7544 27.5957V28.8937H32.9311V26.6779C32.9311 26.6779 32.4089 26.9872 31.2798 26.9872H29.9784V28.8937H24.1897L23.1563 27.6481L22.1071 28.8937H12.5225ZM1.28467 14.4529L3.45476 9.86914H7.2077L8.43926 12.4368V9.86914H13.1045L13.8377 11.7249L14.5484 9.86914H35.4906V10.8021C35.4906 10.8021 36.5915 9.86914 38.4008 9.86914L45.1957 9.89066L46.406 12.4247V9.86914H50.3102L51.3847 11.3247V9.86914H55.3246V18.1037H51.3847L50.3549 16.6434V18.1037H44.6189L44.0421 16.8056H42.5L41.9326 18.1037H38.0426C36.4858 18.1037 35.4906 17.1897 35.4906 17.1897V18.1037H29.6254L28.4614 16.8056V18.1037H6.65173L6.07529 16.8056H4.53816L3.9658 18.1037H1.28467V14.4529ZM1.29586 17.05L4.22284 10.8843H6.44186L9.36604 17.05H7.41845L6.88119 15.8154H3.74154L3.20148 17.05H1.29586ZM6.26277 14.4768L5.30577 12.3192L4.34596 14.4768H6.26277ZM9.56751 17.049V10.8832L12.2755 10.8924L13.8506 14.8676L15.3879 10.8832H18.0742V17.049H16.3729V12.5058L14.5694 17.049H13.0773L11.2689 12.5058V17.049H9.56751ZM19.2383 17.049V10.8832H24.79V12.2624H20.9575V13.3171H24.7005V14.6151H20.9575V15.7104H24.79V17.049H19.2383ZM25.775 17.05V10.8843H29.5611C30.8156 10.8843 31.9396 11.5871 31.9396 12.8846C31.9396 13.9938 30.9919 14.7082 30.0732 14.7784L32.3118 17.05H30.2327L28.1927 14.8596H27.4764V17.05H25.775ZM29.4212 12.2635H27.4764V13.5615H29.4463C29.7873 13.5615 30.2271 13.3221 30.2271 12.9125C30.2271 12.5941 29.8877 12.2635 29.4212 12.2635ZM34.3713 17.049H32.6341V10.8832H34.3713V17.049ZM38.4903 17.049H38.1153C36.3011 17.049 35.1996 15.754 35.1996 13.9915C35.1996 12.1854 36.2888 10.8832 38.5799 10.8832H40.4603V12.3436H38.5111C37.5811 12.3436 36.9233 13.0012 36.9233 14.0067C36.9233 15.2008 37.6754 15.7023 38.7589 15.7023H39.2067L38.4903 17.049ZM39.2654 17.05L42.1924 10.8843H44.4114L47.3356 17.05H45.388L44.8508 15.8154H41.7111L41.171 17.05H39.2654ZM44.2323 14.4768L43.2753 12.3192L42.3155 14.4768H44.2323ZM47.5343 17.049V10.8832H49.6973L52.4592 14.7571V10.8832H54.1606V17.049H52.0675L49.2356 13.0737V17.049H47.5343ZM13.6866 27.8391V21.6733H19.2383V23.0525H15.4058V24.1072H19.1488V25.4052H15.4058V26.5005H19.2383V27.8391H13.6866ZM40.8901 27.8391V21.6733H46.4418V23.0525H42.6094V24.1072H46.3344V25.4052H42.6094V26.5005H46.4418V27.8391H40.8901ZM19.4538 27.8391L22.1569 24.7942L19.3894 21.6733H21.5329L23.181 23.6026L24.8348 21.6733H26.8943L24.1632 24.7562L26.8713 27.8391H24.7282L23.1279 25.9402L21.5664 27.8391H19.4538ZM27.0734 27.8401V21.6744H30.8315C32.3735 21.6744 33.2744 22.5748 33.2744 23.7482C33.2744 25.1647 32.1258 25.893 30.6104 25.893H28.8195V27.8401H27.0734ZM30.7056 23.0687H28.8195V24.4885H30.7C31.1969 24.4885 31.545 24.1901 31.545 23.7786C31.545 23.3406 31.1951 23.0687 30.7056 23.0687ZM34.0131 27.8391V21.6733H37.7991C39.0536 21.6733 40.1777 22.3761 40.1777 23.6736C40.1777 24.7828 39.23 25.4972 38.3112 25.5675L40.5498 27.8391H38.4707L36.4308 25.6486H35.7144V27.8391H34.0131ZM37.6592 23.0525H35.7144V24.3505H37.6844C38.0254 24.3505 38.4651 24.1111 38.4651 23.7015C38.4651 23.3831 38.1258 23.0525 37.6592 23.0525ZM47.2298 27.8391V26.5005H50.6348C51.1386 26.5005 51.3567 26.2538 51.3567 25.9833C51.3567 25.7241 51.1393 25.462 50.6348 25.462H49.0961C47.7587 25.462 47.0138 24.7237 47.0138 23.6153C47.0138 22.6267 47.6959 21.6733 49.6833 21.6733H52.9965L52.2801 23.0606H49.4147C48.867 23.0606 48.6984 23.321 48.6984 23.5697C48.6984 23.8253 48.9067 24.1072 49.3252 24.1072H50.937C52.4279 24.1072 53.0748 24.8734 53.0748 25.8768C53.0748 26.9555 52.3539 27.8391 50.8558 27.8391H47.2298ZM53.2248 27.8391V26.5005H56.6298C57.1336 26.5005 57.3517 26.2538 57.3517 25.9833C57.3517 25.7241 57.1342 25.462 56.6298 25.462H55.0911C53.7537 25.462 53.0088 24.7237 53.0088 23.6153C53.0088 22.6267 53.6909 21.6733 55.6783 21.6733H58.9915L58.2751 23.0606H55.4097C54.862 23.0606 54.6934 23.321 54.6934 23.5697C54.6934 23.8253 54.9017 24.1072 55.3202 24.1072H56.932C58.4229 24.1072 59.0698 24.8734 59.0698 25.8768C59.0698 26.9555 58.3489 27.8391 56.8508 27.8391H53.2248Z" fill="white"/>
</svg>
