<svg width="60" height="40" viewBox="0 0 60 40" fill="none" xmlns="http://www.w3.org/2000/svg">
<rect x="0.5" y="0.5" width="59" height="39" rx="3.5" fill="white" stroke="#F3F3F3"/>
<path fill-rule="evenodd" clip-rule="evenodd" d="M18.1833 14.9265C17.7469 15.4313 17.0486 15.8294 16.3503 15.7725C16.2631 15.09 16.6049 14.3649 17.005 13.9171C17.4414 13.3981 18.2051 13.0284 18.8234 13C18.8961 13.7109 18.6125 14.4076 18.1833 14.9265ZM18.8161 15.9076C18.201 15.873 17.6396 16.0884 17.1863 16.2624C16.8945 16.3744 16.6474 16.4692 16.4594 16.4692C16.2485 16.4692 15.9912 16.3693 15.7024 16.2571C15.3239 16.1102 14.8911 15.9422 14.4374 15.9502C13.3972 15.9645 12.4298 16.5403 11.8988 17.4573C10.8078 19.2915 11.6152 22.0071 12.6698 23.5C13.1863 24.2393 13.8045 25.0498 14.6192 25.0213C14.9776 25.0081 15.2354 24.9012 15.5022 24.7905C15.8094 24.6631 16.1285 24.5308 16.6267 24.5308C17.1077 24.5308 17.4129 24.6597 17.7058 24.7834C17.9843 24.9011 18.2518 25.014 18.6488 25.0071C19.4926 24.9929 20.0236 24.2678 20.54 23.5284C21.0973 22.7349 21.3422 21.9605 21.3794 21.843L21.3837 21.8294C21.3829 21.8285 21.376 21.8254 21.3639 21.82L21.3638 21.82C21.1775 21.7366 19.7535 21.0995 19.7399 19.391C19.7262 17.957 20.8693 17.2304 21.0493 17.116C21.0603 17.109 21.0676 17.1043 21.071 17.1019C20.3436 16.0498 19.2089 15.936 18.8161 15.9076ZM24.6569 24.9289V13.846H28.912C31.1087 13.846 32.6434 15.3246 32.6434 17.4858C32.6434 19.6469 31.0796 21.1398 28.8538 21.1398H26.4172V24.9289H24.6569ZM26.4172 15.2962H28.4465C29.974 15.2962 30.8468 16.0924 30.8468 17.4929C30.8468 18.8934 29.974 19.6967 28.4392 19.6967H26.4172V15.2962ZM38.4551 23.5995C37.9896 24.4668 36.964 25.0142 35.8584 25.0142C34.2218 25.0142 33.0799 24.0616 33.0799 22.6256C33.0799 21.2038 34.1855 20.3863 36.2294 20.2654L38.426 20.1374V19.5261C38.426 18.6232 37.8223 18.1327 36.7458 18.1327C35.8584 18.1327 35.2111 18.5806 35.0801 19.263H33.4945C33.5454 17.827 34.9274 16.782 36.7967 16.782C38.8115 16.782 40.1208 17.8128 40.1208 19.4123V24.9289H38.4915V23.5995H38.4551ZM36.3312 23.6991C35.3929 23.6991 34.7965 23.2583 34.7965 22.5829C34.7965 21.8863 35.3711 21.481 36.4694 21.4171L38.426 21.2962V21.9218C38.426 22.9597 37.5241 23.6991 36.3312 23.6991ZM45.5252 25.3626C44.8196 27.3033 44.0122 27.9431 42.2957 27.9431C42.1647 27.9431 41.7283 27.9289 41.6265 27.9005V26.5711C41.7356 26.5853 42.0047 26.5995 42.1429 26.5995C42.9212 26.5995 43.3576 26.2796 43.6267 25.4479L43.7868 24.9573L40.8045 16.8886H42.6448L44.7178 23.436H44.7542L46.8272 16.8886H48.6165L45.5252 25.3626Z" fill="#0D0D0D"/>
</svg>
