<svg width="15" height="8" viewBox="0 0 15 8" fill="none" xmlns="http://www.w3.org/2000/svg">
<path d="M14.6995 6.29247C15.0902 6.68276 15.0906 7.31592 14.7003 7.70668C14.31 8.09744 13.6769 8.09782 13.2861 7.70753L14.6995 6.29247ZM7.98556 1L7.27888 0.292468C7.66931 -0.0974891 8.30182 -0.0974891 8.69224 0.292468L7.98556 1ZM2.68502 7.70753C2.29427 8.09782 1.6611 8.09744 1.27081 7.70668C0.880522 7.31592 0.880902 6.68276 1.27166 6.29247L2.68502 7.70753ZM13.2861 7.70753L7.27888 1.70753L8.69224 0.292468L14.6995 6.29247L13.2861 7.70753ZM8.69224 1.70753L2.68502 7.70753L1.27166 6.29247L7.27888 0.292468L8.69224 1.70753Z" fill="#1A9449"/>
</svg>
