<svg width="24" height="24" viewBox="0 0 24 24" fill="none" xmlns="http://www.w3.org/2000/svg">
<path d="M13.2929 15.7071C13.6834 16.0976 14.3166 16.0976 14.7071 15.7071C15.0976 15.3166 15.0976 14.6834 14.7071 14.2929L13.2929 15.7071ZM11 12L10.2929 11.2929C9.90237 11.6834 9.90237 12.3166 10.2929 12.7071L11 12ZM14.7071 9.70711C15.0976 9.31658 15.0976 8.68342 14.7071 8.29289C14.3166 7.90237 13.6834 7.90237 13.2929 8.29289L14.7071 9.70711ZM14.7071 14.2929L11.7071 11.2929L10.2929 12.7071L13.2929 15.7071L14.7071 14.2929ZM11.7071 12.7071L14.7071 9.70711L13.2929 8.29289L10.2929 11.2929L11.7071 12.7071Z" fill="#017E2F"/>
</svg>
