<svg width="24" height="24" viewBox="0 0 24 24" fill="none" xmlns="http://www.w3.org/2000/svg">
<path d="M10.7071 8.29289C10.3166 7.90237 9.68342 7.90237 9.29289 8.29289C8.90237 8.68342 8.90237 9.31658 9.29289 9.70711L10.7071 8.29289ZM13 12L13.7071 12.7071C14.0976 12.3166 14.0976 11.6834 13.7071 11.2929L13 12ZM9.29289 14.2929C8.90237 14.6834 8.90237 15.3166 9.29289 15.7071C9.68342 16.0976 10.3166 16.0976 10.7071 15.7071L9.29289 14.2929ZM9.29289 9.70711L12.2929 12.7071L13.7071 11.2929L10.7071 8.29289L9.29289 9.70711ZM12.2929 11.2929L9.29289 14.2929L10.7071 15.7071L13.7071 12.7071L12.2929 11.2929Z" fill="#017E2F"/>
</svg>
