<svg width="15" height="8" viewBox="0 0 15 8" fill="none" xmlns="http://www.w3.org/2000/svg">
<path d="M13.9737 1.70711C14.3642 1.31658 14.3642 0.683418 13.9737 0.292893C13.5832 -0.0976311 12.95 -0.0976311 12.5595 0.292893L13.9737 1.70711ZM7.2666 7L6.55949 7.70711C6.95002 8.09763 7.58318 8.09763 7.97371 7.70711L7.2666 7ZM1.97371 0.292893C1.58318 -0.0976317 0.950019 -0.0976317 0.559495 0.292893C0.16897 0.683417 0.16897 1.31658 0.559495 1.70711L1.97371 0.292893ZM12.5595 0.292893L6.55949 6.29289L7.97371 7.70711L13.9737 1.70711L12.5595 0.292893ZM7.97371 6.29289L1.97371 0.292893L0.559495 1.70711L6.55949 7.70711L7.97371 6.29289Z" fill="black"/>
</svg>
