<svg width="7" height="10" viewBox="0 0 7 10" fill="none" xmlns="http://www.w3.org/2000/svg">
<path d="M5.29289 9.70711C5.68342 10.0976 6.31658 10.0976 6.70711 9.70711C7.09763 9.31658 7.09763 8.68342 6.70711 8.29289L5.29289 9.70711ZM2 5L1.29289 4.29289L0.585786 5L1.29289 5.70711L2 5ZM6.70711 1.70711C7.09763 1.31658 7.09763 0.683417 6.70711 0.292893C6.31658 -0.0976311 5.68342 -0.0976311 5.29289 0.292893L6.70711 1.70711ZM6.70711 8.29289L2.70711 4.29289L1.29289 5.70711L5.29289 9.70711L6.70711 8.29289ZM2.70711 5.70711L6.70711 1.70711L5.29289 0.292893L1.29289 4.29289L2.70711 5.70711Z" fill="#1A9449"/>
</svg>
