<svg width="24" height="24" viewBox="0 0 24 24" fill="none" xmlns="http://www.w3.org/2000/svg">
<path fill-rule="evenodd" clip-rule="evenodd" d="M1.72766 1.81803C1.6272 1.41619 1.22 1.17186 0.818154 1.27233C0.416308 1.37279 0.171987 1.77999 0.272448 2.18183L1.32419 6.38881L2.303 10.4728C2.7192 12.2094 3.04679 13.5763 3.43554 14.6382C3.8343 15.7274 4.32331 16.5731 5.10788 17.2215C5.17559 17.2775 5.24457 17.3319 5.31477 17.3847C6.12823 17.9965 7.06454 18.275 8.21674 18.4089C9.33998 18.5394 10.7456 18.5394 12.5313 18.5394H13.1247C14.6698 18.5394 15.886 18.5394 16.8659 18.4403C17.8694 18.3388 18.6952 18.1282 19.4383 17.663C19.7908 17.4423 20.1183 17.184 20.4151 16.8926C21.0408 16.2784 21.438 15.5245 21.7706 14.5722C22.0954 13.6424 22.3788 12.4597 22.7389 10.9572L22.7598 10.8699C22.9769 9.96408 23.1559 9.21733 23.2251 8.61247C23.2968 7.98468 23.2676 7.38692 22.9542 6.84113C22.8201 6.60769 22.6526 6.3952 22.4568 6.21045C21.9991 5.77849 21.4246 5.6107 20.7974 5.53416C20.193 5.46042 19.4252 5.46044 18.4936 5.46046L2.63827 5.46046L1.72766 1.81803ZM9.25006 13.9999C9.25006 13.5857 9.58585 13.2499 10.0001 13.2499H16.0001C16.4143 13.2499 16.7501 13.5857 16.7501 13.9999C16.7501 14.4141 16.4143 14.7499 16.0001 14.7499H10.0001C9.58585 14.7499 9.25006 14.4141 9.25006 13.9999Z" fill="#1A9449"/>
<path d="M9.4211 21.9999C10.0025 21.9999 10.4737 21.5287 10.4737 20.9473C10.4737 20.3659 10.0025 19.8947 9.4211 19.8947C8.83975 19.8947 8.36847 20.3659 8.36847 20.9473C8.36847 21.5287 8.83975 21.9999 9.4211 21.9999Z" fill="#1A9449"/>
<path d="M15.7369 21.9999C16.3182 21.9999 16.7895 21.5287 16.7895 20.9473C16.7895 20.3659 16.3182 19.8947 15.7369 19.8947C15.1555 19.8947 14.6843 20.3659 14.6843 20.9473C14.6843 21.5287 15.1555 21.9999 15.7369 21.9999Z" fill="#1A9449"/>
</svg>
