<svg width="24" height="21" viewBox="0 0 24 21" fill="none" xmlns="http://www.w3.org/2000/svg">
<path fill-rule="evenodd" clip-rule="evenodd" d="M1.72778 0.818276C1.62732 0.41643 1.22012 0.172109 0.818276 0.272571C0.41643 0.373032 0.172109 0.780233 0.272571 1.18208L1.32431 5.38905L2.30312 9.47305C2.71932 11.2096 3.04692 12.5765 3.43566 13.6384C3.83442 14.7277 4.32343 15.5733 5.108 16.2218C5.17571 16.2777 5.24469 16.3321 5.3149 16.3849C6.12835 16.9968 7.06466 17.2752 8.21686 17.4091C9.3401 17.5397 10.7457 17.5397 12.5314 17.5396H13.1248C14.6699 17.5397 15.8862 17.5397 16.866 17.4406C17.8696 17.3391 18.6953 17.1285 19.4385 16.6632C19.7909 16.4425 20.1185 16.1842 20.4152 15.8929C21.0409 15.2787 21.4382 14.5247 21.7708 13.5724C22.0955 12.6427 22.3789 11.4599 22.739 9.95745L22.7599 9.87019C22.9771 8.96433 23.1561 8.21757 23.2252 7.61272C23.297 6.98492 23.2677 6.38716 22.9543 5.84137C22.8203 5.60794 22.6527 5.39545 22.4569 5.2107C21.9992 4.77874 21.4247 4.61094 20.7975 4.53441C20.1931 4.46066 19.4254 4.46068 18.4937 4.4607L2.63839 4.4607L1.72778 0.818276ZM9.25018 13.0002C9.25018 12.586 9.58597 12.2502 10.0002 12.2502H16.0002C16.4144 12.2502 16.7502 12.586 16.7502 13.0002C16.7502 13.4144 16.4144 13.7502 16.0002 13.7502H10.0002C9.58597 13.7502 9.25018 13.4144 9.25018 13.0002Z" fill="#1A9449"/>
<path d="M9.42122 21.0002C10.0026 21.0002 10.4739 20.5289 10.4739 19.9475C10.4739 19.3662 10.0026 18.8949 9.42122 18.8949C8.83987 18.8949 8.36859 19.3662 8.36859 19.9475C8.36859 20.5289 8.83987 21.0002 9.42122 21.0002Z" fill="#1A9449"/>
<path d="M15.737 21.0002C16.3184 21.0002 16.7896 20.5289 16.7896 19.9475C16.7896 19.3662 16.3184 18.8949 15.737 18.8949C15.1557 18.8949 14.6844 19.3662 14.6844 19.9475C14.6844 20.5289 15.1557 21.0002 15.737 21.0002Z" fill="#1A9449"/>
</svg>
