<svg width="32" height="32" viewBox="0 0 32 32" fill="none" xmlns="http://www.w3.org/2000/svg">
<path d="M23.2668 30.3332C21.7601 30.3332 20.1734 29.9732 18.5334 29.2798C16.9334 28.5998 15.3201 27.6665 13.7468 26.5332C12.1867 25.3865 10.6801 24.1065 9.25342 22.7065C7.84008 21.2798 6.56008 19.7732 5.42675 18.2265C4.28008 16.6265 3.36008 15.0265 2.70675 13.4798C2.01341 11.8265 1.66675 10.2265 1.66675 8.71984C1.66675 7.67984 1.85341 6.69317 2.21341 5.77317C2.58675 4.8265 3.18675 3.9465 4.00008 3.1865C5.02675 2.17317 6.20008 1.6665 7.45342 1.6665C7.97342 1.6665 8.50675 1.7865 8.96008 1.99984C9.48008 2.23984 9.92008 2.59984 10.2401 3.07984L13.3334 7.43984C13.6134 7.8265 13.8267 8.19984 13.9734 8.57317C14.1467 8.97317 14.2401 9.37317 14.2401 9.75984C14.2401 10.2665 14.0934 10.7598 13.8134 11.2265C13.6134 11.5865 13.3067 11.9732 12.9201 12.3598L12.0134 13.3065C12.0267 13.3465 12.0401 13.3732 12.0534 13.3998C12.2134 13.6798 12.5334 14.1598 13.1467 14.8798C13.8001 15.6265 14.4134 16.3065 15.0268 16.9332C15.8134 17.7065 16.4668 18.3198 17.0801 18.8265C17.8401 19.4665 18.3334 19.7865 18.6268 19.9332L18.6001 19.9998L19.5734 19.0398C19.9868 18.6265 20.3868 18.3198 20.7734 18.1198C21.5068 17.6665 22.4401 17.5865 23.3734 17.9732C23.7201 18.1198 24.0934 18.3198 24.4934 18.5998L28.9201 21.7465C29.4134 22.0798 29.7734 22.5065 29.9868 23.0132C30.1868 23.5198 30.2801 23.9865 30.2801 24.4532C30.2801 25.0932 30.1334 25.7332 29.8534 26.3332C29.5734 26.9332 29.2268 27.4532 28.7868 27.9332C28.0268 28.7732 27.2001 29.3732 26.2401 29.7598C25.3201 30.1332 24.3201 30.3332 23.2668 30.3332ZM7.45342 3.6665C6.72008 3.6665 6.04008 3.9865 5.38675 4.6265C4.77342 5.19984 4.34675 5.8265 4.08008 6.5065C3.80008 7.19984 3.66675 7.93317 3.66675 8.71984C3.66675 9.95984 3.96008 11.3065 4.54675 12.6932C5.14675 14.1065 5.98675 15.5732 7.05342 17.0398C8.12008 18.5065 9.33342 19.9332 10.6667 21.2798C12.0001 22.5998 13.4401 23.8265 14.9201 24.9065C16.3601 25.9598 17.8401 26.8132 19.3067 27.4265C21.5867 28.3998 23.7201 28.6265 25.4801 27.8932C26.1601 27.6132 26.7601 27.1865 27.3068 26.5732C27.6134 26.2398 27.8534 25.8798 28.0534 25.4532C28.2134 25.1198 28.2934 24.7732 28.2934 24.4265C28.2934 24.2132 28.2534 23.9998 28.1468 23.7598C28.1068 23.6798 28.0268 23.5332 27.7734 23.3598L23.3468 20.2132C23.0801 20.0265 22.8401 19.8932 22.6134 19.7998C22.3201 19.6798 22.2001 19.5598 21.7467 19.8398C21.4801 19.9732 21.2401 20.1732 20.9734 20.4398L19.9601 21.4398C19.4401 21.9465 18.6401 22.0665 18.0268 21.8398L17.6667 21.6798C17.1201 21.3865 16.4801 20.9332 15.7734 20.3332C15.1334 19.7865 14.4401 19.1465 13.6001 18.3198C12.9467 17.6532 12.2934 16.9465 11.6134 16.1598C10.9867 15.4265 10.5334 14.7998 10.2534 14.2798L10.0934 13.8798C10.0134 13.5732 9.98675 13.3998 9.98675 13.2132C9.98675 12.7332 10.1601 12.3065 10.4934 11.9732L11.4934 10.9332C11.7601 10.6665 11.9601 10.4132 12.0934 10.1865C12.2001 10.0132 12.2401 9.86651 12.2401 9.73317C12.2401 9.62651 12.2001 9.4665 12.1334 9.3065C12.0401 9.09317 11.8934 8.85317 11.7067 8.59984L8.61342 4.2265C8.48008 4.03984 8.32008 3.9065 8.12008 3.81317C7.90675 3.71984 7.68008 3.6665 7.45342 3.6665ZM18.6001 20.0132L18.3867 20.9198L18.7468 19.9865C18.6801 19.9732 18.6267 19.9865 18.6001 20.0132Z" fill="#BADFC8"/>
<path d="M24.6667 13.0002C24.12 13.0002 23.6667 12.5468 23.6667 12.0002C23.6667 11.5202 23.1867 10.5202 22.3867 9.66683C21.6 8.82683 20.7333 8.3335 20 8.3335C19.4533 8.3335 19 7.88016 19 7.3335C19 6.78683 19.4533 6.3335 20 6.3335C21.2933 6.3335 22.6533 7.02683 23.84 8.2935C24.9467 9.48016 25.6667 10.9335 25.6667 12.0002C25.6667 12.5468 25.2133 13.0002 24.6667 13.0002Z" fill="#BADFC8"/>
<path d="M29.3333 12.9998C28.7867 12.9998 28.3333 12.5465 28.3333 11.9998C28.3333 7.39984 24.6 3.6665 20 3.6665C19.4533 3.6665 19 3.21317 19 2.6665C19 2.11984 19.4533 1.6665 20 1.6665C25.6933 1.6665 30.3333 6.3065 30.3333 11.9998C30.3333 12.5465 29.88 12.9998 29.3333 12.9998Z" fill="#BADFC8"/>
</svg>
