<svg width="105" height="104" viewBox="0 0 105 104" fill="none" xmlns="http://www.w3.org/2000/svg">
<path d="M39.5128 25.1826H10.1179C5.733 25.1826 2.16016 28.7555 2.16016 33.1403V93.0669C2.16016 97.4518 5.733 101.025 10.1179 101.025H39.5128C43.8976 101.025 47.4705 97.4518 47.4705 93.0669V33.1403C47.4705 28.7555 43.8976 25.1826 39.5128 25.1826Z" stroke="#1A9449" stroke-width="4" stroke-miterlimit="10" stroke-linecap="round" stroke-linejoin="round"/>
<path d="M47.4727 39.6362H2V86.5706H47.4727V39.6362Z" stroke="#1A9449" stroke-width="4" stroke-miterlimit="10" stroke-linecap="round" stroke-linejoin="round"/>
<path d="M18.2422 33.3027H31.2344" stroke="#1A9449" stroke-width="4" stroke-miterlimit="10" stroke-linecap="round" stroke-linejoin="round"/>
<path d="M23.1123 94.6912H26.3604" stroke="#1A9449" stroke-width="4" stroke-miterlimit="10" stroke-linecap="round" stroke-linejoin="round"/>
<path d="M15.4775 15.7634C20.3496 10.8914 28.145 10.8914 33.0171 15.7634" stroke="#1A9449" stroke-width="4" stroke-miterlimit="10" stroke-linecap="round" stroke-linejoin="round"/>
<path d="M8.82129 8.45551C17.4286 -0.151835 31.2328 -0.151835 39.8402 8.45551" stroke="#1A9449" stroke-width="4" stroke-miterlimit="10" stroke-linecap="round" stroke-linejoin="round"/>
<path d="M53.9688 101.025H102.69" stroke="#1A9449" stroke-width="4" stroke-miterlimit="10" stroke-linecap="round" stroke-linejoin="round"/>
<path d="M81.5771 101.025V38.0127" stroke="#1A9449" stroke-width="4" stroke-miterlimit="10" stroke-linecap="round" stroke-linejoin="round"/>
<path d="M71.5071 20.9604C68.0966 19.0115 64.5238 16.7379 62.8998 13.165C60.7885 18.8491 61.4382 25.5076 64.6862 30.7045C67.4471 35.0894 76.3792 42.8847 81.5761 37.6879C88.2346 31.0293 76.2168 23.5588 71.5071 20.9604Z" stroke="#1A9449" stroke-width="4" stroke-miterlimit="10" stroke-linecap="round" stroke-linejoin="round"/>
<path d="M94.7336 42.8846C96.3576 41.9102 99.4432 38.987 101.067 39.799C102.204 40.2862 102.854 46.6199 102.691 47.9191C101.067 57.6633 99.2808 59.4497 94.5712 62.5354C91.4855 64.4842 82.0662 63.5098 82.5534 57.6633C83.0406 51.6544 90.0239 45.4831 94.7336 42.8846Z" stroke="#1A9449" stroke-width="4" stroke-miterlimit="10" stroke-linecap="round" stroke-linejoin="round"/>
<path d="M91.648 54.5776C89.2119 56.3641 86.7759 58.1505 84.3398 59.9369" stroke="#1A9449" stroke-width="4" stroke-miterlimit="10" stroke-linecap="round" stroke-linejoin="round"/>
<path d="M74.918 31.8413C76.3796 33.9525 78.4908 35.739 80.7645 36.8758" stroke="#1A9449" stroke-width="4" stroke-miterlimit="10" stroke-linecap="round" stroke-linejoin="round"/>
<path d="M81.5779 81.2116C80.4411 83.3229 77.6803 84.4597 75.2443 84.6221C70.3722 84.7845 65.5001 82.5108 62.7392 78.6132C59.9784 74.7155 59.1664 69.3562 60.9528 64.9714C65.5001 64.6465 70.0473 65.7834 73.945 68.2194C77.0307 70.1682 80.2787 73.4163 81.5779 76.9891" stroke="#1A9449" stroke-width="4" stroke-miterlimit="10" stroke-linecap="round" stroke-linejoin="round"/>
<path d="M70.6958 72.9294C72.4822 76.6647 76.2175 79.4255 80.2776 80.0752" stroke="#1A9449" stroke-width="4" stroke-miterlimit="10" stroke-linecap="round" stroke-linejoin="round"/>
</svg>
