<svg width="32" height="32" viewBox="0 0 32 32" fill="none" xmlns="http://www.w3.org/2000/svg">
<path d="M22.6667 28.3334H9.33341C8.78675 28.3334 8.33341 27.8801 8.33341 27.3334C8.33341 26.7867 8.78675 26.3334 9.33341 26.3334H22.6667C26.4801 26.3334 28.3334 24.4801 28.3334 20.6667V11.3334C28.3334 7.52008 26.4801 5.66675 22.6667 5.66675H9.33341C5.52008 5.66675 3.66675 7.52008 3.66675 11.3334C3.66675 11.8801 3.21341 12.3334 2.66675 12.3334C2.12008 12.3334 1.66675 11.8801 1.66675 11.3334C1.66675 6.46675 4.46675 3.66675 9.33341 3.66675H22.6667C27.5334 3.66675 30.3334 6.46675 30.3334 11.3334V20.6667C30.3334 25.5334 27.5334 28.3334 22.6667 28.3334Z" fill="#BADFC8"/>
<path d="M15.9996 17.16C14.8796 17.16 13.7463 16.8133 12.8796 16.1066L8.70629 12.7733C8.27962 12.4266 8.19963 11.8 8.54629 11.3733C8.89296 10.9466 9.51961 10.8666 9.94628 11.2133L14.1196 14.5466C15.133 15.36 16.8529 15.36 17.8663 14.5466L22.0396 11.2133C22.4663 10.8666 23.1063 10.9333 23.4396 11.3733C23.7863 11.8 23.7196 12.44 23.2796 12.7733L19.1063 16.1066C18.2529 16.8133 17.1196 17.16 15.9996 17.16Z" fill="#BADFC8"/>
<path d="M10.6667 23H2.66675C2.12008 23 1.66675 22.5467 1.66675 22C1.66675 21.4533 2.12008 21 2.66675 21H10.6667C11.2134 21 11.6667 21.4533 11.6667 22C11.6667 22.5467 11.2134 23 10.6667 23Z" fill="#BADFC8"/>
<path d="M6.66675 17.6667H2.66675C2.12008 17.6667 1.66675 17.2134 1.66675 16.6667C1.66675 16.1201 2.12008 15.6667 2.66675 15.6667H6.66675C7.21341 15.6667 7.66675 16.1201 7.66675 16.6667C7.66675 17.2134 7.21341 17.6667 6.66675 17.6667Z" fill="#BADFC8"/>
</svg>
