<svg width="105" height="107" viewBox="0 0 105 107" fill="none" xmlns="http://www.w3.org/2000/svg">
<path d="M56.6394 21.8689C56.6394 13.5902 48.3607 2 48.3607 2C48.3607 2 40.082 13.5902 40.082 21.8689C40.082 30.1475 43.7247 31.8033 48.3607 31.8033C52.9968 31.8033 56.6394 30.1475 56.6394 21.8689Z" stroke="#1A9449" stroke-width="4" stroke-miterlimit="10" stroke-linecap="round" stroke-linejoin="round"/>
<path d="M48.3594 31.8035V16.9019" stroke="#1A9449" stroke-width="4" stroke-miterlimit="10" stroke-linecap="round" stroke-linejoin="round"/>
<path d="M56.6394 21.8689C56.6394 13.5902 48.3607 2 48.3607 2C48.3607 2 40.082 13.5902 40.082 21.8689C40.082 30.1475 43.7247 31.8033 48.3607 31.8033C52.9968 31.8033 56.6394 30.1475 56.6394 21.8689Z" stroke="#1A9449" stroke-width="4" stroke-miterlimit="10" stroke-linecap="round" stroke-linejoin="round"/>
<path d="M48.3594 16.9019V31.8035V94.7215" stroke="#1A9449" stroke-width="4" stroke-miterlimit="10" stroke-linecap="round" stroke-linejoin="round"/>
<path d="M48.3604 43.3938C48.0292 42.897 47.5325 42.5659 47.2014 42.0692C41.4063 36.2741 27.3325 33.9561 27.3325 33.9561C27.3325 33.9561 29.6506 48.0298 35.4456 53.8249C41.2407 59.62 45.0489 58.2954 48.3604 54.9839C48.526 54.8184 48.6915 54.6528 49.0227 54.3216V54.1561" stroke="#1A9449" stroke-width="4" stroke-miterlimit="10" stroke-linecap="round" stroke-linejoin="round"/>
<path d="M48.3589 54.9839L37.7622 44.3872" stroke="#1A9449" stroke-width="4" stroke-miterlimit="10" stroke-linecap="round" stroke-linejoin="round"/>
<path d="M48.3604 68.2293C48.0292 67.7325 47.5325 67.4014 47.2014 66.9047C41.4063 61.1096 27.3325 58.626 27.3325 58.626C27.3325 58.626 29.6506 72.6997 35.4456 78.4948C41.2407 84.4555 45.0489 83.1309 48.3604 79.8194C48.526 79.6538 48.6915 79.4883 49.0227 79.1571V78.9915" stroke="#1A9449" stroke-width="4" stroke-miterlimit="10" stroke-linecap="round" stroke-linejoin="round"/>
<path d="M48.3589 79.8194L37.7622 69.2227" stroke="#1A9449" stroke-width="4" stroke-miterlimit="10" stroke-linecap="round" stroke-linejoin="round"/>
<path d="M48.3591 43.3938C48.6903 42.897 49.0214 42.5659 49.5181 42.0692C55.3132 36.2741 69.387 33.9561 69.387 33.9561C69.387 33.9561 67.069 48.0298 61.1083 53.8249C55.3132 59.62 51.505 58.2954 48.3591 54.9839C48.1935 54.8184 48.028 54.6528 47.6968 54.3216C47.6968 54.3216 47.6968 54.3216 47.5312 54.1561" stroke="#1A9449" stroke-width="4" stroke-miterlimit="10" stroke-linecap="round" stroke-linejoin="round"/>
<path d="M48.3589 54.9839L58.79 44.3872" stroke="#1A9449" stroke-width="4" stroke-miterlimit="10" stroke-linecap="round" stroke-linejoin="round"/>
<path d="M48.3591 68.2293C48.6903 67.7325 49.0214 67.4014 49.5181 66.9047C55.3132 61.1096 69.387 58.626 69.387 58.626C69.387 58.626 67.069 72.6997 61.1083 78.4948C55.3132 84.4555 51.505 83.1309 48.3591 79.8194C48.1935 79.6538 48.028 79.4883 47.6968 79.1571C47.6968 79.1571 47.6968 79.1571 47.5312 78.9915" stroke="#1A9449" stroke-width="4" stroke-miterlimit="10" stroke-linecap="round" stroke-linejoin="round"/>
<path d="M48.3589 79.8194L58.79 69.2227" stroke="#1A9449" stroke-width="4" stroke-miterlimit="10" stroke-linecap="round" stroke-linejoin="round"/>
<path d="M51.6722 94.7212H45.0492C42.2345 94.7212 40.082 96.8737 40.082 99.6884C40.082 102.503 42.2345 104.656 45.0492 104.656H51.6722C54.4869 104.656 56.6394 102.503 56.6394 99.6884C56.6394 96.8737 54.4869 94.7212 51.6722 94.7212Z" stroke="#1A9449" stroke-width="4" stroke-miterlimit="10" stroke-linecap="round" stroke-linejoin="round"/>
<path d="M63.2622 28.492L78.1638 13.5903H94.7212" stroke="#1A9449" stroke-width="4" stroke-miterlimit="10" stroke-linecap="round" stroke-linejoin="round"/>
<path d="M79.8208 18.5576H98.0339" stroke="#1A9449" stroke-width="4" stroke-miterlimit="10" stroke-linecap="round" stroke-linejoin="round"/>
<path d="M73.1953 53.328L83.1297 43.3936H99.6871" stroke="#1A9449" stroke-width="4" stroke-miterlimit="10" stroke-linecap="round" stroke-linejoin="round"/>
<path d="M84.7856 38.4263H102.999" stroke="#1A9449" stroke-width="4" stroke-miterlimit="10" stroke-linecap="round" stroke-linejoin="round"/>
<path d="M36.7715 86.4426L21.8699 101.344H5.3125" stroke="#1A9449" stroke-width="4" stroke-miterlimit="10" stroke-linecap="round" stroke-linejoin="round"/>
<path d="M20.2131 96.377H2" stroke="#1A9449" stroke-width="4" stroke-miterlimit="10" stroke-linecap="round" stroke-linejoin="round"/>
</svg>
