<svg width="64" height="64" viewBox="0 0 64 64" fill="none" xmlns="http://www.w3.org/2000/svg">
<path fill-rule="evenodd" clip-rule="evenodd" d="M32.0001 17.6001C39.953 17.6001 46.4001 24.0472 46.4001 32.0001C46.4001 39.1874 41.1343 45.1449 34.2501 46.2252V36.1626H37.6054L38.2438 32.0001H34.2501V29.3001C34.2501 29.2712 34.2505 29.2423 34.2512 29.2134C34.2787 28.1235 34.8341 27.086 36.5088 27.051C36.5378 27.0504 36.5672 27.0501 36.5968 27.0501H38.4126V23.5063C38.4126 23.5063 38.274 23.4827 38.0388 23.4491C37.615 23.3886 36.8773 23.2958 36.0715 23.2511C35.7824 23.235 35.4845 23.2251 35.1892 23.2251C31.9 23.2251 29.7501 25.2186 29.7501 28.8276V32.0001H26.0938V36.1626H29.7501V46.2252C22.8659 45.1449 17.6001 39.1874 17.6001 32.0001C17.6001 24.0472 24.0472 17.6001 32.0001 17.6001Z" fill="white"/>
</svg>
