<svg width="24" height="24" viewBox="0 0 24 24" fill="none" xmlns="http://www.w3.org/2000/svg">
<path d="M14 4H23" stroke="#212121" stroke-width="2" stroke-miterlimit="10" stroke-linecap="square"/>
<path d="M1 4H4" stroke="#212121" stroke-width="2" stroke-miterlimit="10" stroke-linecap="square"/>
<path d="M22 12H23" stroke="#212121" stroke-width="2" stroke-miterlimit="10" stroke-linecap="square"/>
<path d="M1 12H12" stroke="#212121" stroke-width="2" stroke-miterlimit="10" stroke-linecap="square"/>
<path d="M14 20H23" stroke="#212121" stroke-width="2" stroke-miterlimit="10" stroke-linecap="square"/>
<path d="M1 20H4" stroke="#212121" stroke-width="2" stroke-miterlimit="10" stroke-linecap="square"/>
<path d="M7 7C8.65685 7 10 5.65685 10 4C10 2.34315 8.65685 1 7 1C5.34315 1 4 2.34315 4 4C4 5.65685 5.34315 7 7 7Z" stroke="#212121" stroke-width="2" stroke-miterlimit="10" stroke-linecap="square"/>
<path d="M15 15C16.6569 15 18 13.6569 18 12C18 10.3431 16.6569 9 15 9C13.3431 9 12 10.3431 12 12C12 13.6569 13.3431 15 15 15Z" stroke="#212121" stroke-width="2" stroke-miterlimit="10" stroke-linecap="square"/>
<path d="M7 23C8.65685 23 10 21.6569 10 20C10 18.3431 8.65685 17 7 17C5.34315 17 4 18.3431 4 20C4 21.6569 5.34315 23 7 23Z" stroke="#212121" stroke-width="2" stroke-miterlimit="10" stroke-linecap="square"/>
</svg>
