<svg width="32" height="32" viewBox="0 0 32 32" fill="none" xmlns="http://www.w3.org/2000/svg">
<path d="M16 32V13" stroke="white" stroke-width="2" stroke-miterlimit="10"/>
<path d="M17.0025 14.1734C17.0033 14.1503 17.0042 14.1269 17.0052 14.1031C17.0311 13.4467 17.1038 12.5316 17.2905 11.5026C17.6681 9.42081 18.49 6.99444 20.2099 5.25296C21.9282 3.5131 24.32 2.68291 26.3711 2.30144C27.3852 2.11283 28.2872 2.0393 28.9341 2.0131C28.953 2.01234 28.9716 2.01161 28.99 2.01093C28.9892 2.03195 28.9884 2.05326 28.9875 2.07486C28.9616 2.72758 28.8889 3.63852 28.7023 4.66467C28.3251 6.73892 27.5036 9.16791 25.7809 10.9333C24.0627 12.6719 21.672 13.5016 19.6216 13.8829C18.6075 14.0715 17.7054 14.1451 17.0586 14.1713C17.0397 14.172 17.021 14.1728 17.0025 14.1734Z" stroke="white" stroke-width="2" stroke-miterlimit="10"/>
<path d="M14.9953 14.1031C14.9963 14.1268 14.9972 14.1502 14.998 14.1732C14.9816 14.1726 14.965 14.172 14.9483 14.1713C14.305 14.1451 13.4071 14.0716 12.3957 13.883C10.352 13.502 7.95757 12.6721 6.21568 10.9293C4.49721 9.188 3.67577 6.76273 3.29829 4.68172C3.11165 3.6528 3.03889 2.73766 3.01297 2.08129C3.01203 2.05756 3.01115 2.03417 3.01033 2.01114C3.02672 2.01176 3.04329 2.01241 3.06003 2.01309C3.70329 2.03927 4.60116 2.11277 5.61259 2.30136C7.65622 2.68241 10.0506 3.51219 11.7925 5.25492C13.5111 6.99626 14.3325 9.42159 14.71 11.5026C14.8967 12.5316 14.9694 13.4467 14.9953 14.1031Z" stroke="white" stroke-width="2" stroke-miterlimit="10"/>
</svg>
