<svg width="48" height="48" viewBox="0 0 48 48" fill="none" xmlns="http://www.w3.org/2000/svg">
<path d="M24 41.9998V21.1611" stroke="#1A9449" stroke-width="3" stroke-miterlimit="10"/>
<path d="M25.5241 22.0276C25.5642 21.3659 25.6496 20.5265 25.8244 19.6019C26.2475 17.3634 27.1612 14.7989 29.0436 12.9696C30.9317 11.1349 33.5864 10.24 35.9072 9.82577C36.8872 9.65086 37.7746 9.56749 38.4671 9.52947C38.4268 10.1862 38.3414 11.0184 38.1675 11.9363C37.745 14.1657 36.8319 16.7342 34.9452 18.5903C33.0573 20.4231 30.4041 21.3173 28.0845 21.7313C27.1043 21.9062 26.2166 21.9896 25.5241 22.0276Z" stroke="#1A9449" stroke-width="3" stroke-miterlimit="10"/>
<path d="M22.1761 19.6019C22.3509 20.5263 22.4363 21.3655 22.4764 22.0271C21.7889 21.9889 20.9086 21.9055 19.9354 21.7314C17.624 21.3178 14.9652 20.4235 13.0494 18.5845C11.169 16.7554 10.256 14.1924 9.83315 11.9552C9.65842 11.0307 9.57302 10.1915 9.53291 9.52993C10.2204 9.56814 11.1007 9.6515 12.0739 9.82565C14.3853 10.2393 17.0441 11.1335 18.9599 12.9725C20.8403 14.8016 21.7533 17.3646 22.1761 19.6019Z" stroke="#1A9449" stroke-width="3" stroke-miterlimit="10"/>
</svg>
