<svg width="60" height="40" viewBox="0 0 60 40" fill="none" xmlns="http://www.w3.org/2000/svg">
<rect x="0.5" y="0.5" width="59" height="39" rx="3.5" fill="white" stroke="#F3F3F3"/>
<path fill-rule="evenodd" clip-rule="evenodd" d="M28.88 24.1182V19.6071V19.6062H31.4046C32.4454 19.6068 33.3201 19.2907 34.0287 18.6578C34.7449 18.0571 35.1453 17.1935 35.1249 16.2934C35.1391 15.3982 34.7394 14.541 34.0287 13.9422C33.3263 13.3059 32.3816 12.9587 31.4046 12.9778H27.3521V24.1182H28.88ZM28.88 18.2382V14.3494V14.3485H31.4425C32.0136 14.3334 32.5642 14.5487 32.9544 14.9396C33.347 15.2971 33.5685 15.7881 33.5685 16.3009C33.5685 16.8137 33.347 17.3048 32.9544 17.6622C32.5594 18.0449 32.0106 18.254 31.4425 18.2382H28.88Z" fill="#5F6368"/>
<path fill-rule="evenodd" clip-rule="evenodd" d="M41.3205 17.0951C40.6669 16.5297 39.7754 16.2471 38.646 16.2471C37.1952 16.2471 36.0996 16.7448 35.3594 17.7404L36.7051 18.5342C37.2025 17.8598 37.8779 17.5226 38.7314 17.5226C39.2756 17.5167 39.8022 17.703 40.2062 18.0444C40.6091 18.3564 40.8409 18.8215 40.8374 19.3111V19.6382C40.2502 19.3271 39.503 19.1715 38.5957 19.1715C37.5327 19.1727 36.683 19.4062 36.0465 19.872C35.41 20.3377 35.0917 20.965 35.0917 21.7537C35.0779 22.4719 35.4105 23.1577 35.9971 23.6204C36.6007 24.1182 37.3508 24.3671 38.2474 24.3671C39.2977 24.3671 40.1392 23.9315 40.7719 23.0604H40.8383V24.1182H42.2999V19.4204C42.3005 18.4355 41.974 17.6604 41.3205 17.0951ZM37.1759 22.7182C36.8558 22.5021 36.667 22.1544 36.6691 21.7848C36.6691 21.3697 36.8769 21.024 37.2955 20.7395C37.7099 20.4592 38.2274 20.3191 38.8481 20.3191C39.7004 20.3191 40.3647 20.4968 40.8412 20.8524C40.8412 21.4533 40.5881 21.9768 40.0819 22.4231C39.626 22.8501 39.0079 23.0905 38.3632 23.0915C37.9333 23.099 37.5138 22.9672 37.1759 22.7182Z" fill="#5F6368"/>
<path fill-rule="evenodd" clip-rule="evenodd" d="M50.6894 16.4961L45.5873 27.4783H44.0099L45.9033 23.6356L42.5483 16.4961H44.2092L46.6341 21.9716H46.6673L49.0257 16.4961H50.6894Z" fill="#5F6368"/>
<path fill-rule="evenodd" clip-rule="evenodd" d="M22.7054 18.6348C22.706 18.1987 22.6666 17.7633 22.5877 17.3335H16.1436V19.7984H19.8345C19.6819 20.5939 19.1888 21.2965 18.4697 21.7433V23.3433H20.6725C21.9623 22.2295 22.7054 20.5824 22.7054 18.6348Z" fill="#4285F4"/>
<path fill-rule="evenodd" clip-rule="evenodd" d="M16.1434 24.889C17.9875 24.889 19.5401 24.3219 20.6724 23.3441L18.4696 21.7441C17.8565 22.1334 17.0669 22.3556 16.1434 22.3556C14.3611 22.3556 12.8483 21.2303 12.3073 19.7139H10.0381V21.3628C11.198 23.5245 13.5603 24.8889 16.1434 24.889Z" fill="#34A853"/>
<path fill-rule="evenodd" clip-rule="evenodd" d="M12.3074 19.7139C12.0214 18.9193 12.0214 18.0588 12.3074 17.2641V15.6152H10.0382C9.06801 17.4233 9.06801 19.5547 10.0382 21.3628L12.3074 19.7139Z" fill="#FBBC04"/>
<path fill-rule="evenodd" clip-rule="evenodd" d="M16.1434 14.6221C17.1179 14.6072 18.0595 14.9521 18.7648 15.5821V15.5821L20.7151 13.7555C19.4784 12.6675 17.84 12.0702 16.1434 12.0888C13.5603 12.0889 11.198 13.4533 10.0381 15.615L12.3073 17.2639C12.8483 15.7475 14.3611 14.6221 16.1434 14.6221Z" fill="#EA4335"/>
</svg>
