<svg width="60" height="60" viewBox="0 0 60 60" fill="none" xmlns="http://www.w3.org/2000/svg">
<path d="M59 58H57V34.816C57.5845 34.6124 58.0912 34.2319 58.4498 33.7273C58.8083 33.2227 59.0009 32.619 59.0009 32C59.0009 31.381 58.8083 30.7773 58.4498 30.2728C58.0912 29.7682 57.5845 29.3877 57 29.184V5.81601C57.6667 5.58119 58.2287 5.11799 58.5866 4.50847C58.9445 3.89895 59.0752 3.18243 58.9554 2.48583C58.8356 1.78922 58.4732 1.15748 57.9322 0.702504C57.3913 0.247525 56.7068 -0.00133395 56 5.37795e-06H4C3.29317 -0.00133395 2.60868 0.247525 2.06776 0.702504C1.52683 1.15748 1.16439 1.78922 1.04461 2.48583C0.924839 3.18243 1.05547 3.89895 1.41336 4.50847C1.77126 5.11799 2.33332 5.58119 3 5.81601V29.184C2.41546 29.3877 1.90877 29.7682 1.55023 30.2728C1.19169 30.7773 0.999055 31.381 0.999055 32C0.999055 32.619 1.19169 33.2227 1.55023 33.7273C1.90877 34.2319 2.41546 34.6124 3 34.816V58H1C0.734784 58 0.48043 58.1054 0.292893 58.2929C0.105357 58.4804 0 58.7348 0 59C0 59.2652 0.105357 59.5196 0.292893 59.7071C0.48043 59.8947 0.734784 60 1 60H59C59.2652 60 59.5196 59.8947 59.7071 59.7071C59.8946 59.5196 60 59.2652 60 59C60 58.7348 59.8946 58.4804 59.7071 58.2929C59.5196 58.1054 59.2652 58 59 58ZM47.6 26.424C48.5133 25.5661 49.7094 25.0726 50.962 25.037C50.9198 26.2541 50.4356 27.4141 49.6 28.3C49.23 28.5893 48.8038 28.7983 48.3486 28.9136C47.8934 29.029 47.4191 29.0482 46.956 28.97C46.8811 28.5242 46.8996 28.0676 47.0105 27.6293C47.1213 27.1911 47.3221 26.7806 47.6 26.424ZM44.952 28.966C44.5037 29.0334 44.0464 29.0091 43.6077 28.8946C43.1691 28.7802 42.7582 28.5779 42.4 28.3C41.5615 27.412 41.0758 26.2486 41.034 25.028C42.345 25.138 44.546 25.638 44.979 27.657C44.9264 28.0914 44.9174 28.5299 44.952 28.966ZM52.992 23.947C52.9775 23.7025 52.8737 23.4719 52.7005 23.2988C52.5272 23.1258 52.2965 23.0223 52.052 23.008C51.888 22.998 48.09 22.808 46.093 25.108C46.058 25.148 46.031 25.192 45.993 25.233C44.444 23.333 41.593 22.904 39.942 23.008C39.6979 23.0225 39.4675 23.1259 39.2945 23.2988C39.1214 23.4716 39.0177 23.7019 39.003 23.946C38.9208 25.7292 39.3912 27.4943 40.35 29H35.65C36.607 27.494 37.0757 25.7293 36.992 23.947C36.9775 23.7025 36.8737 23.4719 36.7005 23.2988C36.5272 23.1258 36.2965 23.0223 36.052 23.008C35.889 22.998 32.09 22.808 30.093 25.108C30.058 25.148 30.031 25.192 29.998 25.233C28.449 23.333 25.598 22.904 23.947 23.008C23.7029 23.0225 23.4725 23.1259 23.2995 23.2988C23.1264 23.4716 23.0227 23.7019 23.008 23.946C22.9243 25.7287 23.393 27.4937 24.35 29H19.65C20.607 27.494 21.0757 25.7293 20.992 23.947C20.9775 23.7025 20.8738 23.4719 20.7005 23.2988C20.5272 23.1258 20.2965 23.0223 20.052 23.008C19.89 22.998 16.091 22.808 14.093 25.108C14.058 25.148 14.031 25.192 13.993 25.233C12.444 23.333 9.593 22.904 7.942 23.008C7.69786 23.0225 7.46748 23.1259 7.29445 23.2988C7.12142 23.4716 7.01773 23.7019 7.003 23.946C6.92082 25.7292 7.39125 27.4943 8.35 29H5V6.00001H24.12C24.676 8.29101 27.101 10.021 30 10.021C32.899 10.021 35.324 8.29101 35.88 6.00001H55V29H51.65C52.607 27.494 53.0757 25.7293 52.992 23.947ZM31.6 26.424C32.5133 25.5661 33.7094 25.0726 34.962 25.037C34.9198 26.2541 34.4356 27.4141 33.6 28.3C33.23 28.5893 32.8038 28.7983 32.3486 28.9136C31.8934 29.029 31.4191 29.0482 30.956 28.97C30.8811 28.5242 30.8996 28.0676 31.0105 27.6293C31.1213 27.1911 31.3221 26.7806 31.6 26.424ZM28.952 28.966C28.5037 29.0334 28.0464 29.0091 27.6077 28.8946C27.1691 28.7802 26.7582 28.5779 26.4 28.3C25.5615 27.412 25.0758 26.2486 25.034 25.028C26.345 25.138 28.546 25.638 28.979 27.657C28.9264 28.0914 28.9174 28.5299 28.952 28.966ZM15.6 26.424C16.5133 25.5661 17.7094 25.0726 18.962 25.037C18.9198 26.2541 18.4356 27.4141 17.6 28.3C17.23 28.5892 16.8038 28.7981 16.3486 28.9135C15.8933 29.0288 15.4191 29.0481 14.956 28.97C14.8811 28.5242 14.8996 28.0676 15.0105 27.6293C15.1213 27.1911 15.3221 26.7806 15.6 26.424ZM12.952 28.966C12.5037 29.0334 12.0464 29.0091 11.6077 28.8946C11.1691 28.7802 10.7582 28.5779 10.4 28.3C9.56151 27.412 9.07581 26.2486 9.034 25.028C10.345 25.138 12.546 25.638 12.979 27.657C12.9264 28.0914 12.9174 28.5299 12.952 28.966ZM26.243 6.00001H33.757C33.3787 6.6512 32.8274 7.18482 32.1642 7.54158C31.501 7.89834 30.7518 8.06429 30 8.02101C29.2482 8.06429 28.499 7.89834 27.8358 7.54158C27.1726 7.18482 26.6213 6.6512 26.243 6.00001ZM4 2.00001H56C56.2652 2.00001 56.5196 2.10536 56.7071 2.2929C56.8946 2.48044 57 2.73479 57 3.00001C57 3.26522 56.8946 3.51958 56.7071 3.70711C56.5196 3.89465 56.2652 4.00001 56 4.00001H4C3.73478 4.00001 3.48043 3.89465 3.29289 3.70711C3.10536 3.51958 3 3.26522 3 3.00001C3 2.73479 3.10536 2.48044 3.29289 2.2929C3.48043 2.10536 3.73478 2.00001 4 2.00001ZM4 31H56C56.2652 31 56.5196 31.1054 56.7071 31.2929C56.8946 31.4804 57 31.7348 57 32C57 32.2652 56.8946 32.5196 56.7071 32.7071C56.5196 32.8947 56.2652 33 56 33H4C3.73478 33 3.48043 32.8947 3.29289 32.7071C3.10536 32.5196 3 32.2652 3 32C3 31.7348 3.10536 31.4804 3.29289 31.2929C3.48043 31.1054 3.73478 31 4 31ZM33.757 35C33.3787 35.6512 32.8274 36.1848 32.1642 36.5416C31.501 36.8983 30.7518 37.0643 30 37.021C29.2482 37.0643 28.499 36.8983 27.8358 36.5416C27.1726 36.1848 26.6213 35.6512 26.243 35H33.757ZM17.6 57.3C17.2302 57.5896 16.804 57.7988 16.3487 57.9142C15.8934 58.0296 15.4191 58.0486 14.956 57.97C14.8813 57.5236 14.9004 57.0665 15.0119 56.6278C15.1235 56.1892 15.3251 55.7785 15.604 55.422C16.5173 54.5641 17.7134 54.0706 18.966 54.035C18.9231 55.2533 18.4375 56.4142 17.6 57.3ZM12.956 57.964C12.5072 58.0322 12.0492 58.0086 11.6098 57.8944C11.1705 57.7803 10.7589 57.578 10.4 57.3C9.56151 56.412 9.07581 55.2486 9.034 54.028C10.345 54.138 12.546 54.638 12.979 56.657C12.9264 57.0914 12.9174 57.5299 12.952 57.966L12.956 57.964ZM33.6 57.3C33.2303 57.5897 32.8041 57.799 32.3488 57.9144C31.8935 58.0297 31.4191 58.0487 30.956 57.97C30.8813 57.5236 30.9004 57.0665 31.0119 56.6278C31.1235 56.1892 31.3251 55.7785 31.604 55.422C32.5173 54.5641 33.7134 54.0706 34.966 54.035C34.9231 55.2533 34.4375 56.4142 33.6 57.3ZM28.956 57.964C28.5072 58.0322 28.0492 58.0086 27.6098 57.8944C27.1705 57.7803 26.7589 57.578 26.4 57.3C25.5615 56.412 25.0758 55.2486 25.034 54.028C26.345 54.138 28.546 54.638 28.979 56.657C28.9264 57.0914 28.9174 57.5299 28.952 57.966L28.956 57.964ZM49.6 57.3C49.2303 57.5897 48.8041 57.799 48.3488 57.9144C47.8935 58.0297 47.4191 58.0487 46.956 57.97C46.8813 57.5236 46.9004 57.0665 47.0119 56.6278C47.1235 56.1892 47.3251 55.7785 47.604 55.422C48.5173 54.5641 49.7134 54.0706 50.966 54.035C50.9231 55.2533 50.4375 56.4142 49.6 57.3ZM44.956 57.964C44.5072 58.0322 44.0492 58.0086 43.6098 57.8944C43.1705 57.7803 42.7589 57.578 42.4 57.3C41.5615 56.412 41.0758 55.2486 41.034 54.028C42.345 54.138 44.546 54.638 44.979 56.657C44.9264 57.0914 44.9174 57.5299 44.952 57.966L44.956 57.964ZM51.656 57.998C52.613 56.4921 53.0817 54.7274 52.998 52.945C52.9835 52.7005 52.8798 52.4699 52.7065 52.2968C52.5332 52.1238 52.3025 52.0203 52.058 52.006C51.894 51.997 48.096 51.806 46.099 54.106C46.064 54.146 46.037 54.19 45.999 54.231C44.45 52.331 41.599 51.903 39.948 52.006C39.7039 52.0205 39.4735 52.1239 39.3005 52.2968C39.1274 52.4696 39.0237 52.6999 39.009 52.944C38.9246 54.7272 39.393 56.493 40.35 58H35.65C36.607 56.4941 37.0757 54.7294 36.992 52.947C36.9775 52.7025 36.8737 52.4719 36.7005 52.2988C36.5272 52.1258 36.2965 52.0223 36.052 52.008C35.889 51.999 32.09 51.808 30.093 54.108C30.058 54.148 30.031 54.192 29.998 54.233C28.449 52.333 25.598 51.905 23.947 52.008C23.7029 52.0225 23.4725 52.1259 23.2995 52.2988C23.1264 52.4716 23.0227 52.7019 23.008 52.946C22.9243 54.7287 23.393 56.4937 24.35 58H19.65C20.607 56.4941 21.0757 54.7294 20.992 52.947C20.9775 52.7025 20.8738 52.4719 20.7005 52.2988C20.5272 52.1258 20.2965 52.0223 20.052 52.008C19.89 51.999 16.091 51.808 14.093 54.108C14.058 54.148 14.031 54.192 13.993 54.233C12.444 52.333 9.593 51.905 7.942 52.008C7.69786 52.0225 7.46748 52.1259 7.29445 52.2988C7.12142 52.4716 7.01773 52.7019 7.003 52.946C6.92082 54.7292 7.39125 56.4943 8.35 58H5V35H24.12C24.676 37.291 27.101 39.021 30 39.021C32.899 39.021 35.324 37.291 35.88 35H55V58L51.656 57.998Z" fill="#1A9449"/>
<path d="M25 41.0211C25.5523 41.0211 26 40.5734 26 40.0211C26 39.4688 25.5523 39.0211 25 39.0211C24.4477 39.0211 24 39.4688 24 40.0211C24 40.5734 24.4477 41.0211 25 41.0211Z" fill="#1A9449"/>
<path d="M22 45.0001C22.5523 45.0001 23 44.5524 23 44.0001C23 43.4478 22.5523 43.0001 22 43.0001C21.4477 43.0001 21 43.4478 21 44.0001C21 44.5524 21.4477 45.0001 22 45.0001Z" fill="#1A9449"/>
<path d="M19.0015 49C19.5538 49 20.0015 48.5523 20.0015 48.0001C20.0015 47.4478 19.5538 47.0001 19.0015 47.0001C18.4492 47.0001 18.0015 47.4478 18.0015 48.0001C18.0015 48.5523 18.4492 49 19.0015 49Z" fill="#1A9449"/>
<path d="M41 49C41.5523 49 42 48.5523 42 48.0001C42 47.4478 41.5523 47.0001 41 47.0001C40.4477 47.0001 40 47.4478 40 48.0001C40 48.5523 40.4477 49 41 49Z" fill="#1A9449"/>
<path d="M37.9985 45C38.5508 45 38.9985 44.5523 38.9985 44.0001C38.9985 43.4478 38.5508 43.0001 37.9985 43.0001C37.4462 43.0001 36.9985 43.4478 36.9985 44.0001C36.9985 44.5523 37.4462 45 37.9985 45Z" fill="#1A9449"/>
<path d="M30 47C30.5523 47 31 46.5523 31 46C31 45.4477 30.5523 45 30 45C29.4477 45 29 45.4477 29 46C29 46.5523 29.4477 47 30 47Z" fill="#1A9449"/>
<path d="M30 50.9998C30.5523 50.9998 31 50.5521 31 49.9998C31 49.4475 30.5523 48.9998 30 48.9998C29.4477 48.9998 29 49.4475 29 49.9998C29 50.5521 29.4477 50.9998 30 50.9998Z" fill="#1A9449"/>
<path d="M35 41.0211C35.5523 41.0211 36 40.5734 36 40.0211C36 39.4688 35.5523 39.0211 35 39.0211C34.4477 39.0211 34 39.4688 34 40.0211C34 40.5734 34.4477 41.0211 35 41.0211Z" fill="#1A9449"/>
<path d="M30 43.021C30.5523 43.021 31 42.5733 31 42.0211C31 41.4688 30.5523 41.0211 30 41.0211C29.4477 41.0211 29 41.4688 29 42.0211C29 42.5733 29.4477 43.021 30 43.021Z" fill="#1A9449"/>
<path d="M25 12.0211C25.5523 12.0211 26 11.5733 26 11.0211C26 10.4688 25.5523 10.0211 25 10.0211C24.4477 10.0211 24 10.4688 24 11.0211C24 11.5733 24.4477 12.0211 25 12.0211Z" fill="#1A9449"/>
<path d="M22 15.9998C22.5523 15.9998 23 15.5521 23 14.9998C23 14.4475 22.5523 13.9998 22 13.9998C21.4477 13.9998 21 14.4475 21 14.9998C21 15.5521 21.4477 15.9998 22 15.9998Z" fill="#1A9449"/>
<path d="M19.0015 20.0001C19.5538 20.0001 20.0015 19.5524 20.0015 19.0001C20.0015 18.4478 19.5538 18.0001 19.0015 18.0001C18.4492 18.0001 18.0015 18.4478 18.0015 19.0001C18.0015 19.5524 18.4492 20.0001 19.0015 20.0001Z" fill="#1A9449"/>
<path d="M41 20.0001C41.5523 20.0001 42 19.5524 42 19.0001C42 18.4478 41.5523 18.0001 41 18.0001C40.4477 18.0001 40 18.4478 40 19.0001C40 19.5524 40.4477 20.0001 41 20.0001Z" fill="#1A9449"/>
<path d="M37.9985 15.9998C38.5508 15.9998 38.9985 15.5521 38.9985 14.9998C38.9985 14.4475 38.5508 13.9998 37.9985 13.9998C37.4462 13.9998 36.9985 14.4475 36.9985 14.9998C36.9985 15.5521 37.4462 15.9998 37.9985 15.9998Z" fill="#1A9449"/>
<path d="M30 18.0002C30.5523 18.0002 31 17.5525 31 17.0002C31 16.4479 30.5523 16.0002 30 16.0002C29.4477 16.0002 29 16.4479 29 17.0002C29 17.5525 29.4477 18.0002 30 18.0002Z" fill="#1A9449"/>
<path d="M30 22C30.5523 22 31 21.5523 31 21C31 20.4477 30.5523 20 30 20C29.4477 20 29 20.4477 29 21C29 21.5523 29.4477 22 30 22Z" fill="#1A9449"/>
<path d="M35 12.0211C35.5523 12.0211 36 11.5733 36 11.0211C36 10.4688 35.5523 10.0211 35 10.0211C34.4477 10.0211 34 10.4688 34 11.0211C34 11.5733 34.4477 12.0211 35 12.0211Z" fill="#1A9449"/>
<path d="M30 14.0209C30.5523 14.0209 31 13.5732 31 13.0209C31 12.4687 30.5523 12.0209 30 12.0209C29.4477 12.0209 29 12.4687 29 13.0209C29 13.5732 29.4477 14.0209 30 14.0209Z" fill="#1A9449"/>
</svg>
