<svg width="32" height="32" viewBox="0 0 32 32" fill="none" xmlns="http://www.w3.org/2000/svg">
<path d="M18.18 13.1993C18.18 13.1993 19.1199 7.71516 15.271 5.3335C15.2138 6.27593 14.9559 7.19585 14.5143 8.03315C14.0726 8.87045 13.4571 9.60631 12.7079 10.1927C11.0619 11.6218 7.96736 14.8335 8.00026 18.2585C7.98945 19.7228 8.39283 21.1609 9.16497 22.4109C9.9371 23.661 11.0473 24.6732 12.3705 25.3335C12.4178 24.6725 12.5981 24.0274 12.9011 23.4361C13.204 22.8449 13.6234 22.3193 14.1346 21.8902C14.5679 21.5611 14.9306 21.1501 15.2013 20.6811C15.472 20.212 15.6455 19.6944 15.7114 19.1585C16.8442 19.7531 17.8014 20.628 18.4894 21.6975C19.1773 22.767 19.5725 23.9946 19.6362 25.2602V25.2768C20.8841 24.711 21.9493 23.8154 22.7141 22.6891C23.4789 21.5627 23.9136 20.2494 23.9701 18.8943C24.2435 15.6752 22.4583 11.301 20.8755 9.871C20.278 11.1887 19.3503 12.3342 18.18 13.1993V13.1993Z" fill="#1A9449"/>
</svg>
