<svg width="16" height="16" viewBox="0 0 16 16" fill="none" xmlns="http://www.w3.org/2000/svg">
<path fill-rule="evenodd" clip-rule="evenodd" d="M8 16C12.4183 16 16 12.4183 16 8C16 3.58172 12.4183 0 8 0C3.58172 0 0 3.58172 0 8C0 12.4183 3.58172 16 8 16ZM8.8 4.8C8.8 5.24183 8.44183 5.6 8 5.6C7.55817 5.6 7.2 5.24183 7.2 4.8C7.2 4.35817 7.55817 4 8 4C8.44183 4 8.8 4.35817 8.8 4.8ZM7.1998 7.2C7.1998 6.75817 7.55798 6.4 7.9998 6.4C8.44163 6.4 8.7998 6.75817 8.7998 7.2V11.2C8.7998 11.6418 8.44163 12 7.9998 12C7.55798 12 7.1998 11.6418 7.1998 11.2V7.2Z" fill="#1A9449" fill-opacity="0.7"/>
</svg>
