<svg width="64" height="64" viewBox="0 0 64 64" fill="none" xmlns="http://www.w3.org/2000/svg">
<path d="M38 16H26C20.478 16 16 20.478 16 26V38C16 43.522 20.478 48 26 48H38C43.522 48 48 43.522 48 38V26C48 20.478 43.522 16 38 16ZM45 38C45 41.86 41.86 45 38 45H26C22.14 45 19 41.86 19 38V26C19 22.14 22.14 19 26 19H38C41.86 19 45 22.14 45 26V38Z" fill="white"/>
<path d="M32 24C27.582 24 24 27.582 24 32C24 36.418 27.582 40 32 40C36.418 40 40 36.418 40 32C40 27.582 36.418 24 32 24ZM32 37C29.244 37 27 34.756 27 32C27 29.242 29.244 27 32 27C34.756 27 37 29.242 37 32C37 34.756 34.756 37 32 37Z" fill="white"/>
<path d="M40.5999 24.466C41.1887 24.466 41.6659 23.9887 41.6659 23.4C41.6659 22.8112 41.1887 22.334 40.5999 22.334C40.0112 22.334 39.5339 22.8112 39.5339 23.4C39.5339 23.9887 40.0112 24.466 40.5999 24.466Z" fill="white"/>
</svg>
