<svg width="64" height="64" viewBox="0 0 64 64" fill="none" xmlns="http://www.w3.org/2000/svg">
<g clip-path="url(#clip0_1_633)">
<path d="M45.6378 16H18.3622C17.7357 16 17.1349 16.2489 16.6919 16.6919C16.2489 17.1349 16 17.7357 16 18.3622V45.6378C16 46.2643 16.2489 46.8651 16.6919 47.3081C17.1349 47.7511 17.7357 48 18.3622 48H45.6378C46.2643 48 46.8651 47.7511 47.3081 47.3081C47.7511 46.8651 48 46.2643 48 45.6378V18.3622C48 17.7357 47.7511 17.1349 47.3081 16.6919C46.8651 16.2489 46.2643 16 45.6378 16ZM25.5378 43.26H20.7267V27.9778H25.5378V43.26ZM23.1289 25.86C22.5832 25.8569 22.0506 25.6923 21.5983 25.3868C21.1461 25.0813 20.7945 24.6487 20.5878 24.1436C20.3812 23.6385 20.3289 23.0835 20.4374 22.5486C20.5459 22.0138 20.8104 21.523 21.1975 21.1384C21.5847 20.7537 22.0771 20.4924 22.6126 20.3873C23.1482 20.2822 23.7028 20.3381 24.2066 20.548C24.7104 20.7578 25.1407 21.1122 25.4433 21.5664C25.7459 22.0206 25.9071 22.5543 25.9067 23.1C25.9118 23.4654 25.8433 23.8281 25.7053 24.1664C25.5674 24.5048 25.3626 24.8119 25.1034 25.0694C24.8442 25.327 24.5358 25.5297 24.1966 25.6655C23.8573 25.8014 23.4942 25.8675 23.1289 25.86ZM43.2711 43.2733H38.4622V34.9244C38.4622 32.4622 37.4156 31.7022 36.0644 31.7022C34.6378 31.7022 33.2378 32.7778 33.2378 34.9867V43.2733H28.4267V27.9889H33.0533V30.1067H33.1156C33.58 29.1667 35.2067 27.56 37.6889 27.56C40.3733 27.56 43.2733 29.1533 43.2733 33.82L43.2711 43.2733Z" fill="white"/>
</g>
<defs>
<clipPath id="clip0_1_633">
<rect width="32" height="32" fill="white" transform="translate(16 16)"/>
</clipPath>
</defs>
</svg>
