<svg width="32" height="32" viewBox="0 0 32 32" fill="none" xmlns="http://www.w3.org/2000/svg">
<path d="M19.7076 26.2672L18.9207 25.6501L18.9207 25.6501L19.7076 26.2672ZM12.2922 26.2672L11.5053 26.8843L12.2922 26.2672ZM15.9999 29.3405L15.9999 28.3405L15.9999 29.3405ZM25.6666 12.8115C25.6666 14.4468 24.8138 16.6351 23.4716 19.008C22.1515 21.3417 20.4455 23.7057 18.9207 25.6501L20.4945 26.8843C22.0494 24.9015 23.8229 22.4492 25.2124 19.9926C26.5798 17.5752 27.6666 14.9991 27.6666 12.8115H25.6666ZM13.0791 25.6501C11.5543 23.7057 9.84829 21.3417 8.52825 19.008C7.18608 16.6351 6.33325 14.4468 6.33325 12.8115H4.33325C4.33325 14.9991 5.42006 17.5752 6.78744 19.9926C8.17695 22.4492 9.95042 24.9015 11.5053 26.8843L13.0791 25.6501ZM6.33325 12.8115C6.33325 6.9542 10.729 2.33325 15.9999 2.33325V0.333252C9.4888 0.333252 4.33325 5.99028 4.33325 12.8115H6.33325ZM15.9999 2.33325C21.2709 2.33325 25.6666 6.9542 25.6666 12.8115H27.6666C27.6666 5.99028 22.511 0.333252 15.9999 0.333252V2.33325ZM18.9207 25.6501C18.0955 26.7025 17.5521 27.39 17.0655 27.832C16.6217 28.2351 16.3255 28.3405 15.9999 28.3405L15.9999 30.3405C16.972 30.3405 17.7263 29.9337 18.4103 29.3124C19.0514 28.73 19.7131 27.8808 20.4945 26.8843L18.9207 25.6501ZM11.5053 26.8843C12.2867 27.8808 12.9484 28.73 13.5896 29.3124C14.2736 29.9337 15.0278 30.3405 15.9999 30.3405L15.9999 28.3405C15.6743 28.3405 15.3781 28.2351 14.9343 27.832C14.4477 27.39 13.9044 26.7025 13.0791 25.6501L11.5053 26.8843ZM10.9999 13.3333C10.9999 16.0947 13.2385 18.3333 15.9999 18.3333V16.3333C14.3431 16.3333 12.9999 14.9901 12.9999 13.3333H10.9999ZM15.9999 18.3333C18.7613 18.3333 20.9999 16.0947 20.9999 13.3333H18.9999C18.9999 14.9901 17.6568 16.3333 15.9999 16.3333V18.3333ZM20.9999 13.3333C20.9999 10.5718 18.7613 8.33325 15.9999 8.33325V10.3333C17.6568 10.3333 18.9999 11.6764 18.9999 13.3333H20.9999ZM15.9999 8.33325C13.2385 8.33325 10.9999 10.5718 10.9999 13.3333H12.9999C12.9999 11.6764 14.3431 10.3333 15.9999 10.3333V8.33325Z" fill="#BADFC8"/>
</svg>
