<svg width="256" height="54" viewBox="0 0 256 54" fill="none" xmlns="http://www.w3.org/2000/svg">
<path d="M21.8281 22.9175L30.2496 25.4631C29.6839 27.8248 28.793 29.7976 27.5768 31.3815C26.3606 32.9654 24.8474 34.1604 23.0372 34.9665C21.2412 35.7726 18.9502 36.1756 16.1642 36.1756C12.7843 36.1756 10.0196 35.6877 7.86999 34.7119C5.73456 33.722 3.88903 31.9896 2.33342 29.5147C0.777807 27.0399 0 23.8721 0 20.0114C0 14.8637 1.3647 10.911 4.09409 8.15334C6.83763 5.38152 10.7125 3.99561 15.7188 3.99561C19.6361 3.99561 22.712 4.78755 24.9464 6.37145C27.195 7.95535 28.8637 10.3878 29.9526 13.6687L21.4675 15.5566C21.1705 14.6091 20.8594 13.9162 20.5341 13.4778C19.9967 12.7424 19.3391 12.1767 18.5613 11.7807C17.7835 11.3848 16.9138 11.1868 15.9521 11.1868C13.7743 11.1868 12.1055 12.0636 10.9459 13.8172C10.0691 15.1182 9.63066 17.1618 9.63066 19.9477C9.63066 23.3984 10.1539 25.7671 11.2004 27.054C12.2469 28.3268 13.7177 28.9632 15.6127 28.9632C17.4512 28.9632 18.8371 28.447 19.7704 27.4147C20.7179 26.3823 21.4038 24.8833 21.8281 22.9175Z" fill="#59C901"/>
<path d="M35.7539 4.52593H45.3846V35.6241H35.7539V4.52593Z" fill="#59C901"/>
<path d="M50.5495 4.52593H79.7597V12.205H69.9593V35.6241H60.3499V12.205H50.5495V4.52593Z" fill="#59C901"/>
<path d="M81.4245 4.52593H92.0946L98.3736 15.0263L104.653 4.52593H115.259L103.168 22.5993V35.6241H93.5371V22.5993L81.4245 4.52593Z" fill="#59C901"/>
<path d="M136.52 22.9175L144.942 25.4631C144.376 27.8248 143.485 29.7976 142.269 31.3815C141.053 32.9654 139.54 34.1604 137.73 34.9665C135.934 35.7726 133.643 36.1756 130.857 36.1756C127.477 36.1756 124.712 35.6877 122.562 34.7119C120.427 33.722 118.581 31.9896 117.026 29.5147C115.47 27.0399 114.692 23.8721 114.692 20.0114C114.692 14.8637 116.057 10.911 118.786 8.15334C121.53 5.38152 125.405 3.99561 130.411 3.99561C134.328 3.99561 137.404 4.78755 139.639 6.37145C141.887 7.95535 143.556 10.3878 144.645 13.6687L136.16 15.5566C135.863 14.6091 135.552 13.9162 135.226 13.4778C134.689 12.7424 134.031 12.1767 133.254 11.7807C132.476 11.3848 131.606 11.1868 130.644 11.1868C128.467 11.1868 126.798 12.0636 125.638 13.8172C124.761 15.1182 124.323 17.1618 124.323 19.9477C124.323 23.3984 124.846 25.7671 125.893 27.054C126.939 28.3268 128.41 28.9632 130.305 28.9632C132.144 28.9632 133.529 28.447 134.463 27.4147C135.41 26.3823 136.096 24.8833 136.52 22.9175Z" fill="#177C3E"/>
<path d="M149.323 35.6241V4.52593H165.339C168.308 4.52593 170.578 4.78048 172.148 5.28959C173.718 5.7987 174.983 6.74621 175.945 8.13212C176.907 9.50389 177.388 11.1797 177.388 13.1596C177.388 14.8849 177.02 16.3769 176.285 17.6355C175.549 18.88 174.538 19.8911 173.251 20.669C172.431 21.1639 171.307 21.574 169.878 21.8993C171.024 22.2811 171.858 22.663 172.381 23.0448C172.735 23.2994 173.244 23.8438 173.909 24.6782C174.587 25.5126 175.04 26.156 175.266 26.6086L179.912 35.6241H169.051L163.917 26.1207C163.267 24.8903 162.687 24.0913 162.178 23.7236C161.485 23.2428 160.7 23.0024 159.823 23.0024H158.975V35.6241H149.323ZM158.975 17.1264H163.026C163.465 17.1264 164.313 16.985 165.572 16.7021C166.208 16.5749 166.725 16.2496 167.121 15.7263C167.531 15.2031 167.736 14.6021 167.736 13.9232C167.736 12.9192 167.418 12.1484 166.781 11.611C166.145 11.0736 164.95 10.805 163.196 10.805H158.975V17.1264Z" fill="#177C3E"/>
<path d="M218.287 4.52593H234.26C237.739 4.52593 240.341 5.35323 242.067 7.00784C243.806 8.66245 244.676 11.0171 244.676 14.0717C244.676 17.2113 243.728 19.6649 241.833 21.4326C239.952 23.2004 237.074 24.0842 233.2 24.0842H227.939V35.6241H218.287V4.52593ZM227.939 17.784H230.293C232.146 17.784 233.447 17.4658 234.197 16.8294C234.946 16.1789 235.321 15.3516 235.321 14.3475C235.321 13.3717 234.996 12.5444 234.345 11.8656C233.695 11.1868 232.471 10.8474 230.675 10.8474H227.939V17.784Z" fill="#177C3E"/>
<path d="M0.649781 53.436C0.502139 53.436 0.390135 53.3902 0.313768 53.2985C0.237402 53.2018 0.199219 53.1203 0.199219 53.0542C0.199219 52.9829 0.206855 52.9269 0.222129 52.8861L4.07864 42.5156C4.25173 42.0625 4.5292 41.8079 4.91103 41.7519C5.0434 41.7366 5.20122 41.729 5.3845 41.729H5.51433C5.86052 41.729 6.0998 41.7723 6.23217 41.8588C6.446 41.9912 6.61146 42.2025 6.72855 42.4927L10.8753 52.8938C10.8905 52.9345 10.8982 52.9931 10.8982 53.0694C10.8982 53.1407 10.8676 53.2196 10.8065 53.3062C10.7454 53.3927 10.6436 53.436 10.5011 53.436H9.43193C9.19774 53.436 9.03482 53.3265 8.94318 53.1076L7.99624 50.6257H2.97896L2.10074 53.1076C2.02947 53.3265 1.87419 53.436 1.63491 53.436H0.649781ZM7.35476 48.9762L5.5296 44.0124C5.51433 43.9614 5.48378 43.936 5.43796 43.936C5.39214 43.936 5.36159 43.9614 5.34632 44.0124L3.57462 48.9762H7.35476Z" fill="#59C901"/>
<path d="M16.6034 51.9239C18.4514 51.9239 19.3755 50.8726 19.3755 48.77V42.2177C19.3755 42.0854 19.4162 41.9708 19.4976 41.8741C19.5842 41.7774 19.686 41.729 19.8031 41.729H20.8493C20.9664 41.729 21.0657 41.7774 21.1472 41.8741C21.2286 41.9708 21.2693 42.0854 21.2693 42.2177V48.7547C21.2693 50.3228 20.8111 51.5472 19.8947 52.4279C19.0547 53.2323 17.9601 53.6345 16.611 53.6345C15.2568 53.6345 14.1545 53.2171 13.3043 52.3821C12.4134 51.5115 11.9679 50.3024 11.9679 48.7547V42.2177C11.9679 42.0854 12.0086 41.9708 12.0901 41.8741C12.1766 41.7774 12.2785 41.729 12.3956 41.729H13.4418C13.5589 41.729 13.6582 41.7774 13.7396 41.8741C13.8211 41.9708 13.8618 42.0854 13.8618 42.2177V48.77C13.8618 49.8239 14.1189 50.6206 14.6331 51.1603C15.1066 51.6694 15.7633 51.9239 16.6034 51.9239Z" fill="#59C901"/>
<path d="M25.4167 43.3938H22.6598C22.5275 43.3938 22.4129 43.3531 22.3162 43.2716C22.2245 43.1851 22.1787 43.0807 22.1787 42.9585V42.1567C22.1787 42.0396 22.2245 41.9403 22.3162 41.8588C22.4129 41.7723 22.5275 41.729 22.6598 41.729H30.2048C30.3372 41.729 30.4365 41.7723 30.5027 41.8588C30.5739 41.9403 30.6096 42.0421 30.6096 42.1643V42.9661C30.6096 43.0832 30.5739 43.1851 30.5027 43.2716C30.4314 43.3531 30.3296 43.3938 30.1972 43.3938H27.3411V52.9472C27.3411 53.0796 27.2978 53.1942 27.2113 53.2909C27.1298 53.3876 27.0305 53.436 26.9134 53.436H25.8367C25.7196 53.436 25.6203 53.3876 25.5388 53.2909C25.4574 53.1942 25.4167 53.0796 25.4167 52.9472V43.3938Z" fill="#59C901"/>
<path d="M31.8702 50.5493C31.6513 50.0911 31.4833 49.6049 31.3662 49.0907C31.2542 48.5714 31.1982 47.9605 31.1982 47.2579C31.1982 46.5503 31.3331 45.8324 31.603 45.1044C31.8779 44.3764 32.2648 43.7476 32.7637 43.2181C33.8176 42.0981 35.182 41.5381 36.857 41.5381C38.6389 41.5381 40.0364 42.1108 41.0495 43.2563C42.0117 44.3407 42.4928 45.7561 42.4928 47.5023C42.4928 49.2333 41.9633 50.6817 40.9044 51.8476C40.4055 52.3974 39.8073 52.8327 39.1098 53.1534C38.4123 53.4691 37.7046 53.6269 36.9868 53.6269C36.274 53.6269 35.6657 53.5531 35.1616 53.4054C34.6576 53.2527 34.1969 53.0414 33.7794 52.7716C33.367 52.4967 33.0005 52.1708 32.6797 51.7941C32.359 51.4174 32.0892 51.0024 31.8702 50.5493ZM33.2677 47.4489C33.2677 48.0343 33.3365 48.5893 33.4739 49.1136C33.6165 49.638 33.8329 50.1064 34.123 50.5188C34.7645 51.4199 35.6682 51.8705 36.8341 51.8705C38.005 51.8705 38.9087 51.4403 39.5451 50.5799C40.1305 49.7857 40.4233 48.7573 40.4233 47.4947C40.4233 46.3034 40.1255 45.3208 39.5298 44.5469C38.873 43.7069 37.977 43.2869 36.8417 43.2869C35.7471 43.2869 34.8765 43.6789 34.23 44.4629C33.5885 45.2317 33.2677 46.227 33.2677 47.4489Z" fill="#59C901"/>
<path d="M57.3543 53.0542C57.3543 53.3087 57.2652 53.436 57.0871 53.436H55.8194C55.7226 53.436 55.6386 53.4054 55.5674 53.3443C55.4961 53.2833 55.4554 53.2069 55.4452 53.1152L54.9183 48.5485C54.8521 47.9732 54.8012 47.4056 54.7655 46.8456C54.735 46.2855 54.6993 45.7001 54.6586 45.0891L54.5822 44.0047C54.5822 43.9844 54.5746 43.9742 54.5593 43.9742C54.5491 43.9742 54.5415 43.9818 54.5364 43.9971L54.1928 45.2495C54.1215 45.5041 54.0426 45.7586 53.956 46.0132L51.5734 52.4967C51.5479 52.573 51.497 52.6443 51.4207 52.7105C51.3443 52.7767 51.2679 52.8098 51.1916 52.8098H49.9926C49.8348 52.8098 49.7075 52.708 49.6108 52.5043C47.8442 48.3653 46.9023 46.1532 46.7852 45.8681C46.6732 45.5779 46.5739 45.303 46.4874 45.0433L46.1437 43.9895C46.1387 43.9742 46.1285 43.9665 46.1132 43.9665C46.103 43.9665 46.0954 43.9767 46.0903 43.9971V45.2342C46.0903 46.3135 46.047 47.4158 45.9605 48.5409L45.6168 53.1152C45.6066 53.1967 45.5583 53.2705 45.4717 53.3367C45.3903 53.4029 45.3037 53.436 45.2121 53.436H44.1582C44.036 53.436 43.9342 53.3825 43.8527 53.2756C43.7764 53.1687 43.7458 53.0389 43.7611 52.8861L44.6775 42.8363C44.7131 42.4138 44.7641 42.1465 44.8302 42.0345C44.9473 41.8308 45.1612 41.729 45.4717 41.729H46.2965C46.5459 41.729 46.719 41.7621 46.8158 41.8283C46.994 41.9454 47.1492 42.1668 47.2816 42.4927L50.573 50.5111L53.452 42.485C53.62 41.981 53.9051 41.729 54.3073 41.729H55.1703C55.6183 41.729 55.8805 41.9352 55.9568 42.3476C55.9772 42.4799 55.9976 42.6225 56.0179 42.7752L57.3391 52.8938C57.3493 52.9447 57.3543 52.9982 57.3543 53.0542Z" fill="#59C901"/>
<path d="M58.6761 53.436C58.5285 53.436 58.4165 53.3902 58.3401 53.2985C58.2637 53.2018 58.2255 53.1203 58.2255 53.0542C58.2255 52.9829 58.2332 52.9269 58.2484 52.8861L62.105 42.5156C62.2781 42.0625 62.5555 41.8079 62.9373 41.7519C63.0697 41.7366 63.2275 41.729 63.4108 41.729H63.5406C63.8868 41.729 64.1261 41.7723 64.2585 41.8588C64.4723 41.9912 64.6378 42.2025 64.7549 42.4927L68.9016 52.8938C68.9168 52.9345 68.9245 52.9931 68.9245 53.0694C68.9245 53.1407 68.8939 53.2196 68.8328 53.3062C68.7717 53.3927 68.6699 53.436 68.5274 53.436H67.4582C67.2241 53.436 67.0611 53.3265 66.9695 53.1076L66.0226 50.6257H61.0053L60.1271 53.1076C60.0558 53.3265 59.9005 53.436 59.6612 53.436H58.6761ZM65.3811 48.9762L63.5559 44.0124C63.5406 43.9614 63.5101 43.936 63.4643 43.936C63.4185 43.936 63.3879 43.9614 63.3726 44.0124L61.6009 48.9762H65.3811Z" fill="#59C901"/>
<path d="M72.3845 43.3938H69.6277C69.4953 43.3938 69.3807 43.3531 69.284 43.2716C69.1924 43.1851 69.1466 43.0807 69.1466 42.9585V42.1567C69.1466 42.0396 69.1924 41.9403 69.284 41.8588C69.3807 41.7723 69.4953 41.729 69.6277 41.729H77.1727C77.305 41.729 77.4043 41.7723 77.4705 41.8588C77.5418 41.9403 77.5774 42.0421 77.5774 42.1643V42.9661C77.5774 43.0832 77.5418 43.1851 77.4705 43.2716C77.3992 43.3531 77.2974 43.3938 77.165 43.3938H74.3089V52.9472C74.3089 53.0796 74.2657 53.1942 74.1791 53.2909C74.0976 53.3876 73.9984 53.436 73.8813 53.436H72.8045C72.6874 53.436 72.5881 53.3876 72.5067 53.2909C72.4252 53.1942 72.3845 53.0796 72.3845 52.9472V43.3938Z" fill="#59C901"/>
<path d="M79.0748 42.2177C79.0748 42.0854 79.1155 41.9708 79.197 41.8741C79.2835 41.7774 79.3854 41.729 79.5025 41.729H86.2151C86.3474 41.729 86.4467 41.7723 86.5129 41.8588C86.5842 41.9403 86.6198 42.0421 86.6198 42.1643V42.989C86.6198 43.1061 86.5842 43.208 86.5129 43.2945C86.4467 43.376 86.3474 43.4167 86.2151 43.4167H80.9916V46.7616H85.1459C85.2783 46.7616 85.3776 46.8048 85.4438 46.8914C85.515 46.9728 85.5507 47.0747 85.5507 47.1968V48.0216C85.5507 48.1387 85.515 48.2405 85.4438 48.3271C85.3776 48.4085 85.2783 48.4493 85.1459 48.4493H80.9916V51.7483H86.2533C86.3856 51.7483 86.4849 51.7916 86.5511 51.8781C86.6224 51.9596 86.658 52.0614 86.658 52.1836V53.0083C86.658 53.1254 86.6224 53.2273 86.5511 53.3138C86.4849 53.3953 86.3856 53.436 86.2533 53.436H79.4948C79.3777 53.436 79.2785 53.3876 79.197 53.2909C79.1155 53.1942 79.0748 53.0796 79.0748 52.9472V42.2177Z" fill="#59C901"/>
<path d="M88.8809 42.3934C88.8809 42.2152 88.9394 42.0599 89.0565 41.9276C89.1787 41.7952 89.3467 41.729 89.5605 41.729H91.9814C93.9974 41.729 95.5146 42.2279 96.5328 43.2258C97.5001 44.1829 97.9838 45.5499 97.9838 47.3267C97.9838 49.2256 97.439 50.7199 96.3495 51.8094C95.2651 52.8938 93.7632 53.436 91.8439 53.436H89.5605C89.3467 53.436 89.1787 53.3698 89.0565 53.2374C88.9394 53.1 88.8809 52.9421 88.8809 52.764V42.3934ZM92.2105 43.4091H91.8286C91.6606 43.4091 91.317 43.4167 90.7977 43.432V51.7483L92.0424 51.7712H92.0883C94.0585 51.7712 95.2702 50.921 95.7233 49.2206C95.871 48.6707 95.9448 48.0623 95.9448 47.3954C95.9448 46.7234 95.8633 46.1455 95.7004 45.6619C95.5426 45.1731 95.3058 44.7608 94.9902 44.4247C94.3538 43.7476 93.4272 43.4091 92.2105 43.4091Z" fill="#59C901"/>
<path d="M104.292 42.2177C104.292 42.0854 104.333 41.9708 104.414 41.8741C104.501 41.7774 104.603 41.729 104.72 41.729H105.789C105.906 41.729 106.005 41.7774 106.087 41.8741C106.168 41.9708 106.209 42.0854 106.209 42.2177V52.9472C106.209 53.0796 106.166 53.1942 106.079 53.2909C105.998 53.3876 105.898 53.436 105.781 53.436H104.712C104.595 53.436 104.496 53.3876 104.414 53.2909C104.333 53.1942 104.292 53.0796 104.292 52.9472V42.2177Z" fill="#59C901"/>
<path d="M109.112 42.6759C109.112 42.0447 109.387 41.729 109.937 41.729H110.25C110.459 41.729 110.604 41.7545 110.685 41.8054C110.838 41.897 110.98 42.0421 111.113 42.2407L116.031 49.4802C116.219 49.7551 116.367 50.0071 116.474 50.2362L116.787 50.893C116.792 50.9032 116.8 50.9083 116.81 50.9083C116.825 50.9083 116.828 50.8421 116.817 50.7097C116.807 50.5773 116.782 50.3864 116.741 50.137C116.7 49.8824 116.68 49.6304 116.68 49.3809V42.1948C116.68 42.0625 116.718 41.953 116.795 41.8665C116.876 41.7748 116.973 41.729 117.085 41.729H118.093C118.2 41.729 118.291 41.7748 118.368 41.8665C118.449 41.953 118.49 42.0625 118.49 42.1948V52.6723C118.49 52.876 118.426 53.0338 118.299 53.1458C118.085 53.3393 117.892 53.436 117.719 53.436H117.253C116.998 53.436 116.812 53.3953 116.695 53.3138C116.522 53.1814 116.308 52.932 116.054 52.5654C113.147 48.3143 111.589 46.0183 111.38 45.6771L110.746 44.6157C110.736 44.6004 110.721 44.5927 110.7 44.5927C110.685 44.5927 110.685 44.6309 110.7 44.7073C110.716 44.7837 110.736 44.9135 110.762 45.0968C110.792 45.275 110.82 45.4735 110.846 45.6924C110.896 46.2015 110.922 46.675 110.922 47.1128V52.9701C110.922 53.0974 110.881 53.2069 110.8 53.2985C110.723 53.3902 110.629 53.436 110.517 53.436H109.509C109.402 53.436 109.308 53.3902 109.227 53.2985C109.15 53.2069 109.112 53.0974 109.112 52.9701V42.6759Z" fill="#59C901"/>
<path d="M121.492 42.3934C121.492 42.2152 121.551 42.0599 121.668 41.9276C121.79 41.7952 121.958 41.729 122.172 41.729H124.593C126.609 41.729 128.126 42.2279 129.144 43.2258C130.112 44.1829 130.595 45.5499 130.595 47.3267C130.595 49.2256 130.051 50.7199 128.961 51.8094C127.877 52.8938 126.375 53.436 124.455 53.436H122.172C121.958 53.436 121.79 53.3698 121.668 53.2374C121.551 53.1 121.492 52.9421 121.492 52.764V42.3934ZM124.822 43.4091H124.44C124.272 43.4091 123.929 43.4167 123.409 43.432V51.7483L124.654 51.7712H124.7C126.67 51.7712 127.882 50.921 128.335 49.2206C128.482 48.6707 128.556 48.0623 128.556 47.3954C128.556 46.7234 128.475 46.1455 128.312 45.6619C128.154 45.1731 127.917 44.7608 127.602 44.4247C126.965 43.7476 126.039 43.4091 124.822 43.4091Z" fill="#59C901"/>
<path d="M132.345 50.5493C132.127 50.0911 131.959 49.6049 131.841 49.0907C131.729 48.5714 131.673 47.9605 131.673 47.2579C131.673 46.5503 131.808 45.8324 132.078 45.1044C132.353 44.3764 132.74 43.7476 133.239 43.2181C134.293 42.0981 135.657 41.5381 137.332 41.5381C139.114 41.5381 140.512 42.1108 141.525 43.2563C142.487 44.3407 142.968 45.7561 142.968 47.5023C142.968 49.2333 142.439 50.6817 141.38 51.8476C140.881 52.3974 140.282 52.8327 139.585 53.1534C138.887 53.4691 138.18 53.6269 137.462 53.6269C136.749 53.6269 136.141 53.5531 135.637 53.4054C135.133 53.2527 134.672 53.0414 134.255 52.7716C133.842 52.4967 133.476 52.1708 133.155 51.7941C132.834 51.4174 132.564 51.0024 132.345 50.5493ZM133.743 47.4489C133.743 48.0343 133.812 48.5893 133.949 49.1136C134.092 49.638 134.308 50.1064 134.598 50.5188C135.24 51.4199 136.143 51.8705 137.309 51.8705C138.48 51.8705 139.384 51.4403 140.02 50.5799C140.606 49.7857 140.898 48.7573 140.898 47.4947C140.898 46.3034 140.601 45.3208 140.005 44.5469C139.348 43.7069 138.452 43.2869 137.317 43.2869C136.222 43.2869 135.352 43.6789 134.705 44.4629C134.064 45.2317 133.743 46.227 133.743 47.4489Z" fill="#59C901"/>
<path d="M144.81 50.5493C144.591 50.0911 144.423 49.6049 144.306 49.0907C144.194 48.5714 144.138 47.9605 144.138 47.2579C144.138 46.5503 144.273 45.8324 144.543 45.1044C144.817 44.3764 145.204 43.7476 145.703 43.2181C146.757 42.0981 148.122 41.5381 149.797 41.5381C151.578 41.5381 152.976 42.1108 153.989 43.2563C154.951 44.3407 155.432 45.7561 155.432 47.5023C155.432 49.2333 154.903 50.6817 153.844 51.8476C153.345 52.3974 152.747 52.8327 152.049 53.1534C151.352 53.4691 150.644 53.6269 149.926 53.6269C149.214 53.6269 148.605 53.5531 148.101 53.4054C147.597 53.2527 147.136 53.0414 146.719 52.7716C146.307 52.4967 145.94 52.1708 145.619 51.7941C145.299 51.4174 145.029 51.0024 144.81 50.5493ZM146.207 47.4489C146.207 48.0343 146.276 48.5893 146.413 49.1136C146.556 49.638 146.772 50.1064 147.063 50.5188C147.704 51.4199 148.608 51.8705 149.774 51.8705C150.945 51.8705 151.848 51.4403 152.485 50.5799C153.07 49.7857 153.363 48.7573 153.363 47.4947C153.363 46.3034 153.065 45.3208 152.469 44.5469C151.813 43.7069 150.917 43.2869 149.781 43.2869C148.687 43.2869 147.816 43.6789 147.17 44.4629C146.528 45.2317 146.207 46.227 146.207 47.4489Z" fill="#59C901"/>
<path d="M165.338 51.7941L166.125 51.6872C166.268 51.6872 166.367 51.7356 166.423 51.8323C166.484 51.929 166.527 52.0334 166.553 52.1454C166.583 52.2523 166.611 52.349 166.637 52.4356C166.662 52.5221 166.675 52.6163 166.675 52.7181C166.675 52.82 166.624 52.9243 166.522 53.0312C166.425 53.1331 166.301 53.2247 166.148 53.3062C165.822 53.4793 165.481 53.5658 165.125 53.5658C164.773 53.5658 164.455 53.5251 164.17 53.4436C163.885 53.3622 163.615 53.2502 163.361 53.1076C162.963 52.8836 162.556 52.568 162.139 52.1607C161.726 51.7534 161.398 51.4046 161.154 51.1144L159.894 49.5566C159.715 49.3427 159.555 49.1696 159.412 49.0373V52.9549C159.412 53.1585 159.344 53.3036 159.206 53.3902C159.155 53.4207 159.097 53.436 159.031 53.436H157.939C157.801 53.436 157.704 53.3953 157.648 53.3138C157.557 53.1814 157.511 53.0618 157.511 52.9549V42.401C157.511 42.2228 157.557 42.0676 157.648 41.9352C157.745 41.7977 157.9 41.729 158.114 41.729H161.52C164.549 41.729 166.064 42.9254 166.064 45.3182C166.064 46.4179 165.657 47.3419 164.842 48.0903C164.073 48.798 163.167 49.1518 162.123 49.1518C161.94 49.1518 161.765 49.1391 161.596 49.1136L162.536 50.1064C163.075 50.6715 163.495 51.0534 163.796 51.2519C164.336 51.6134 164.85 51.7941 165.338 51.7941ZM159.412 47.5787C159.988 47.711 160.507 47.7772 160.97 47.7772C161.439 47.7772 161.856 47.734 162.223 47.6474C162.589 47.5609 162.915 47.4234 163.2 47.235C163.831 46.8277 164.147 46.2244 164.147 45.4251C164.147 44.7073 163.875 44.1753 163.33 43.8291C162.872 43.5389 162.251 43.3938 161.467 43.3938H159.412V47.5787Z" fill="#59C901"/>
<path d="M173.52 42.2177C173.52 42.0854 173.56 41.9708 173.642 41.8741C173.728 41.7774 173.83 41.729 173.947 41.729H180.148C180.281 41.729 180.38 41.7723 180.446 41.8588C180.517 41.9403 180.553 42.0421 180.553 42.1643V42.9967C180.553 43.1138 180.517 43.2156 180.446 43.3022C180.38 43.3836 180.281 43.4243 180.148 43.4243H175.436V47.2198H179.232C179.364 47.2198 179.463 47.263 179.53 47.3496C179.601 47.4361 179.636 47.5379 179.636 47.655V48.4798C179.636 48.5969 179.601 48.6987 179.53 48.7853C179.463 48.8667 179.364 48.9075 179.232 48.9075H175.429V52.9472C175.429 53.0796 175.385 53.1942 175.299 53.2909C175.217 53.3876 175.118 53.436 175.001 53.436H173.94C173.822 53.436 173.723 53.3876 173.642 53.2909C173.56 53.1942 173.52 53.0796 173.52 52.9472V42.2177Z" fill="#59C901"/>
<path d="M181.18 53.436C181.033 53.436 180.921 53.3902 180.844 53.2985C180.768 53.2018 180.73 53.1203 180.73 53.0542C180.73 52.9829 180.738 52.9269 180.753 52.8861L184.609 42.5156C184.782 42.0625 185.06 41.8079 185.442 41.7519C185.574 41.7366 185.732 41.729 185.915 41.729H186.045C186.391 41.729 186.63 41.7723 186.763 41.8588C186.977 41.9912 187.142 42.2025 187.259 42.4927L191.406 52.8938C191.421 52.9345 191.429 52.9931 191.429 53.0694C191.429 53.1407 191.398 53.2196 191.337 53.3062C191.276 53.3927 191.174 53.436 191.032 53.436H189.963C189.728 53.436 189.565 53.3265 189.474 53.1076L188.527 50.6257H183.51L182.631 53.1076C182.56 53.3265 182.405 53.436 182.166 53.436H181.18ZM187.885 48.9762L186.06 44.0124C186.045 43.9614 186.014 43.936 185.969 43.936C185.923 43.936 185.892 43.9614 185.877 44.0124L184.105 48.9762H187.885Z" fill="#59C901"/>
<path d="M200.961 51.7941L201.747 51.6872C201.89 51.6872 201.989 51.7356 202.045 51.8323C202.106 51.929 202.149 52.0334 202.175 52.1454C202.205 52.2523 202.233 52.349 202.259 52.4356C202.284 52.5221 202.297 52.6163 202.297 52.7181C202.297 52.82 202.246 52.9243 202.144 53.0312C202.048 53.1331 201.923 53.2247 201.77 53.3062C201.444 53.4793 201.103 53.5658 200.747 53.5658C200.396 53.5658 200.077 53.5251 199.792 53.4436C199.507 53.3622 199.237 53.2502 198.983 53.1076C198.586 52.8836 198.178 52.568 197.761 52.1607C197.349 51.7534 197.02 51.4046 196.776 51.1144L195.516 49.5566C195.338 49.3427 195.177 49.1696 195.035 49.0373V52.9549C195.035 53.1585 194.966 53.3036 194.828 53.3902C194.778 53.4207 194.719 53.436 194.653 53.436H193.561C193.423 53.436 193.327 53.3953 193.271 53.3138C193.179 53.1814 193.133 53.0618 193.133 52.9549V42.401C193.133 42.2228 193.179 42.0676 193.271 41.9352C193.367 41.7977 193.523 41.729 193.736 41.729H197.142C200.172 41.729 201.686 42.9254 201.686 45.3182C201.686 46.4179 201.279 47.3419 200.464 48.0903C199.696 48.798 198.789 49.1518 197.746 49.1518C197.562 49.1518 197.387 49.1391 197.219 49.1136L198.158 50.1064C198.698 50.6715 199.118 51.0534 199.418 51.2519C199.958 51.6134 200.472 51.7941 200.961 51.7941ZM195.035 47.5787C195.61 47.711 196.129 47.7772 196.593 47.7772C197.061 47.7772 197.478 47.734 197.845 47.6474C198.212 47.5609 198.537 47.4234 198.822 47.235C199.454 46.8277 199.769 46.2244 199.769 45.4251C199.769 44.7073 199.497 44.1753 198.952 43.8291C198.494 43.5389 197.873 43.3938 197.089 43.3938H195.035V47.5787Z" fill="#59C901"/>
<path d="M217.068 53.0542C217.068 53.3087 216.979 53.436 216.8 53.436H215.533C215.436 53.436 215.352 53.4054 215.281 53.3443C215.209 53.2833 215.169 53.2069 215.159 53.1152L214.632 48.5485C214.565 47.9732 214.515 47.4056 214.479 46.8456C214.448 46.2855 214.413 45.7001 214.372 45.0891L214.296 44.0047C214.296 43.9844 214.288 43.9742 214.273 43.9742C214.263 43.9742 214.255 43.9818 214.25 43.9971L213.906 45.2495C213.835 45.5041 213.756 45.7586 213.669 46.0132L211.287 52.4967C211.261 52.573 211.21 52.6443 211.134 52.7105C211.058 52.7767 210.981 52.8098 210.905 52.8098H209.706C209.548 52.8098 209.421 52.708 209.324 52.5043C207.558 48.3653 206.616 46.1532 206.499 45.8681C206.387 45.5779 206.287 45.303 206.201 45.0433L205.857 43.9895C205.852 43.9742 205.842 43.9665 205.827 43.9665C205.816 43.9665 205.809 43.9767 205.804 43.9971V45.2342C205.804 46.3135 205.76 47.4158 205.674 48.5409L205.33 53.1152C205.32 53.1967 205.272 53.2705 205.185 53.3367C205.104 53.4029 205.017 53.436 204.925 53.436H203.872C203.749 53.436 203.648 53.3825 203.566 53.2756C203.49 53.1687 203.459 53.0389 203.475 52.8861L204.391 42.8363C204.427 42.4138 204.477 42.1465 204.544 42.0345C204.661 41.8308 204.875 41.729 205.185 41.729H206.01C206.259 41.729 206.432 41.7621 206.529 41.8283C206.707 41.9454 206.863 42.1668 206.995 42.4927L210.286 50.5111L213.165 42.485C213.333 41.981 213.619 41.729 214.021 41.729H214.884C215.332 41.729 215.594 41.9352 215.67 42.3476C215.691 42.4799 215.711 42.6225 215.731 42.7752L217.052 52.8938C217.063 52.9447 217.068 52.9982 217.068 53.0542Z" fill="#59C901"/>
<path d="M219.1 42.2177C219.1 42.0854 219.141 41.9708 219.223 41.8741C219.309 41.7774 219.411 41.729 219.528 41.729H220.597C220.714 41.729 220.814 41.7774 220.895 41.8741C220.977 41.9708 221.017 42.0854 221.017 42.2177V52.9472C221.017 53.0796 220.974 53.1942 220.887 53.2909C220.806 53.3876 220.707 53.436 220.59 53.436H219.52C219.403 53.436 219.304 53.3876 219.223 53.2909C219.141 53.1942 219.1 53.0796 219.1 52.9472V42.2177Z" fill="#59C901"/>
<path d="M223.921 42.6759C223.921 42.0447 224.195 41.729 224.745 41.729H225.058C225.267 41.729 225.412 41.7545 225.494 41.8054C225.646 41.897 225.789 42.0421 225.921 42.2407L230.839 49.4802C231.028 49.7551 231.175 50.0071 231.282 50.2362L231.595 50.893C231.6 50.9032 231.608 50.9083 231.618 50.9083C231.634 50.9083 231.636 50.8421 231.626 50.7097C231.616 50.5773 231.59 50.3864 231.55 50.137C231.509 49.8824 231.488 49.6304 231.488 49.3809V42.1948C231.488 42.0625 231.527 41.953 231.603 41.8665C231.684 41.7748 231.781 41.729 231.893 41.729H232.901C233.008 41.729 233.1 41.7748 233.176 41.8665C233.258 41.953 233.298 42.0625 233.298 42.1948V52.6723C233.298 52.876 233.235 53.0338 233.107 53.1458C232.894 53.3393 232.7 53.436 232.527 53.436H232.061C231.807 53.436 231.621 53.3953 231.504 53.3138C231.331 53.1814 231.117 52.932 230.862 52.5654C227.955 48.3143 226.397 46.0183 226.189 45.6771L225.555 44.6157C225.545 44.6004 225.529 44.5927 225.509 44.5927C225.494 44.5927 225.494 44.6309 225.509 44.7073C225.524 44.7837 225.545 44.9135 225.57 45.0968C225.601 45.275 225.629 45.4735 225.654 45.6924C225.705 46.2015 225.73 46.675 225.73 47.1128V52.9701C225.73 53.0974 225.69 53.2069 225.608 53.2985C225.532 53.3902 225.438 53.436 225.326 53.436H224.318C224.211 53.436 224.117 53.3902 224.035 53.2985C223.959 53.2069 223.921 53.0974 223.921 52.9701V42.6759Z" fill="#59C901"/>
<path d="M237.003 51.9927C236.545 51.4632 236.186 50.8166 235.927 50.0529C235.672 49.2893 235.545 48.4365 235.545 47.4947C235.545 46.5528 235.677 45.7153 235.942 44.9822C236.212 44.2491 236.586 43.628 237.065 43.1189C238.062 42.065 239.386 41.5381 241.036 41.5381C242.375 41.5381 243.439 41.8537 244.228 42.485C244.564 42.7599 244.811 43.0552 244.968 43.3709C245.131 43.6865 245.213 43.9309 245.213 44.104C245.213 44.272 245.208 44.4069 245.198 44.5087C245.192 44.6106 245.164 44.7098 245.114 44.8066C244.986 45.0357 244.747 45.1502 244.396 45.1502H243.739C243.586 45.1502 243.487 45.1069 243.441 45.0204C243.385 44.9186 243.347 44.7837 243.327 44.6157C243.306 44.4426 243.255 44.2771 243.174 44.1193C243.097 43.9614 242.97 43.8138 242.792 43.6763C242.375 43.3556 241.822 43.1952 241.135 43.1952C240.453 43.1952 239.9 43.3047 239.478 43.5236C239.055 43.7374 238.704 44.0353 238.424 44.4171C237.874 45.1757 237.599 46.1888 237.599 47.4565C237.599 48.7242 237.849 49.7551 238.347 50.5493C238.928 51.4606 239.781 51.9163 240.906 51.9163C242.123 51.9163 242.873 51.5879 243.159 50.9312C243.245 50.7428 243.288 50.5595 243.288 50.3813C243.288 50.198 243.263 50.0173 243.212 49.8391C243.161 49.6609 243.072 49.4904 242.945 49.3275C242.66 48.9405 242.235 48.6784 241.669 48.5409C241.506 48.5002 241.359 48.4238 241.226 48.3118C241.099 48.1947 241.036 48.0318 241.036 47.823V47.5558C241.036 47.4539 241.076 47.3674 241.158 47.2961C241.239 47.2198 241.338 47.1816 241.456 47.1816H245.03C245.315 47.1816 245.457 47.3063 245.457 47.5558V48.3882C245.457 48.49 245.414 48.5714 245.327 48.6325C245.246 48.6936 245.147 48.7242 245.03 48.7242H243.915C244.48 48.9787 244.859 49.4038 245.052 49.9995C245.124 50.2184 245.159 50.4424 245.159 50.6715C245.159 50.8955 245.129 51.1119 245.068 51.3206C245.007 51.5294 244.907 51.7406 244.77 51.9545C244.632 52.1683 244.452 52.377 244.228 52.5807C244.009 52.7792 243.739 52.9574 243.418 53.1152C242.711 53.4563 241.904 53.6269 240.997 53.6269C240.091 53.6269 239.315 53.4869 238.668 53.2069C238.022 52.9269 237.467 52.5221 237.003 51.9927Z" fill="#59C901"/>
<g clip-path="url(#clip0_1_1132)">
<path d="M213.859 19.9845C213.859 19.2538 213.823 18.5232 213.713 17.7925C210.06 20.7516 205.42 22.5417 200.342 22.5417H195.227V17.4272C195.227 12.3492 197.018 7.70954 199.977 4.05629C199.246 3.94669 198.515 3.91016 197.785 3.91016C188.907 3.91016 181.71 11.1071 181.71 19.9845C181.71 28.8618 188.907 36.0588 197.785 36.0588C206.662 36.0588 213.859 28.8618 213.859 19.9845Z" fill="#177C3E"/>
<path d="M213.859 3.91016C204.982 3.91016 197.785 11.1071 197.785 19.9845C206.662 19.9845 213.859 12.7876 213.859 3.91016Z" fill="#65BC46"/>
</g>
<path d="M246.505 6V1.61147H244.866V1.0243H248.81V1.61147H247.164V6H246.505ZM249.399 6V1.0243H250.39L251.568 4.54734C251.676 4.87543 251.755 5.12094 251.805 5.28385C251.862 5.10284 251.95 4.83697 252.07 4.48625L253.261 1.0243H254.147V6H253.512V1.83548L252.067 6H251.473L250.034 1.76421V6H249.399Z" fill="#177C3E"/>
<defs>
<clipPath id="clip0_1_1132">
<rect width="32.1486" height="32.1486" fill="white" transform="translate(181.71 3.91016)"/>
</clipPath>
</defs>
</svg>
