<svg width="60" height="40" viewBox="0 0 60 40" fill="none" xmlns="http://www.w3.org/2000/svg">
<rect x="0.5" y="0.5" width="59" height="39" rx="3.5" fill="white" stroke="#F3F3F3"/>
<path fill-rule="evenodd" clip-rule="evenodd" d="M21.982 30.8905V32.3673V33.8442H21.3124V33.4856C21.1 33.7515 20.7777 33.9185 20.3397 33.9185C19.4761 33.9185 18.7991 33.2699 18.7991 32.3673C18.7991 31.4655 19.4761 30.8162 20.3397 30.8162C20.7777 30.8162 21.1 30.9831 21.3124 31.2491V30.8905H21.982ZM20.423 31.4216C19.8434 31.4216 19.4886 31.8482 19.4886 32.3673C19.4886 32.8865 19.8434 33.313 20.423 33.313C20.9768 33.313 21.3507 32.9049 21.3507 32.3673C21.3507 31.8298 20.9768 31.4216 20.423 31.4216ZM44.6101 32.3673C44.6101 31.8482 44.9648 31.4216 45.5445 31.4216C46.099 31.4216 46.4722 31.8298 46.4722 32.3673C46.4722 32.9049 46.099 33.313 45.5445 33.313C44.9648 33.313 44.6101 32.8865 44.6101 32.3673ZM47.1042 29.7043V32.3673V33.8442H46.4339V33.4856C46.2215 33.7515 45.8992 33.9185 45.4611 33.9185C44.5976 33.9185 43.9206 33.2699 43.9206 32.3673C43.9206 31.4655 44.5976 30.8162 45.4611 30.8162C45.8992 30.8162 46.2215 30.9831 46.4339 31.2491V29.7043H47.1042ZM30.2939 31.3912C30.7253 31.3912 31.0026 31.6508 31.0734 32.1077H29.4753C29.5468 31.6812 29.8167 31.3912 30.2939 31.3912ZM28.7732 32.3673C28.7732 31.4464 29.4045 30.8162 30.3071 30.8162C31.17 30.8162 31.7629 31.4464 31.7695 32.3673C31.7695 32.4536 31.7629 32.5342 31.7562 32.6142H29.4694C29.566 33.1461 29.9591 33.3378 30.3905 33.3378C30.6995 33.3378 31.0284 33.226 31.2865 33.0287L31.6146 33.5047C31.2408 33.8074 30.816 33.9185 30.3521 33.9185C29.4303 33.9185 28.7732 33.3066 28.7732 32.3673ZM38.3926 32.3673C38.3926 31.8482 38.7473 31.4216 39.327 31.4216C39.8808 31.4216 40.2547 31.8298 40.2547 32.3673C40.2547 32.9049 39.8808 33.313 39.327 33.313C38.7473 33.313 38.3926 32.8865 38.3926 32.3673ZM40.886 30.8905V32.3673V33.8442H40.2164V33.4856C40.0032 33.7515 39.6817 33.9185 39.2436 33.9185C38.3801 33.9185 37.7031 33.2699 37.7031 32.3673C37.7031 31.4655 38.3801 30.8162 39.2436 30.8162C39.6817 30.8162 40.0032 30.9831 40.2164 31.2491V30.8905H40.886ZM34.6109 32.3673C34.6109 33.2635 35.2614 33.9185 36.254 33.9185C36.7179 33.9185 37.0268 33.8194 37.3617 33.5662L37.0401 33.047C36.7886 33.2203 36.5246 33.313 36.2341 33.313C35.6994 33.3066 35.3064 32.936 35.3064 32.3673C35.3064 31.7986 35.6994 31.428 36.2341 31.4216C36.5246 31.4216 36.7886 31.5143 37.0401 31.6876L37.3617 31.1684C37.0268 30.9152 36.7179 30.8162 36.254 30.8162C35.2614 30.8162 34.6109 31.4712 34.6109 32.3673ZM42.4324 31.2491C42.6064 30.9895 42.8579 30.8162 43.2443 30.8162C43.38 30.8162 43.5733 30.8409 43.7215 30.8968L43.515 31.5023C43.3734 31.4464 43.2318 31.428 43.0961 31.428C42.6581 31.428 42.439 31.6996 42.439 32.1884V33.8442H41.7687V30.8905H42.4324V31.2491ZM25.2939 31.1253C24.9716 30.9216 24.5277 30.8162 24.038 30.8162C23.2578 30.8162 22.7556 31.1748 22.7556 31.7619C22.7556 32.2435 23.1295 32.5406 23.8182 32.6333L24.1346 32.6764C24.5019 32.7259 24.6752 32.8186 24.6752 32.9855C24.6752 33.214 24.4303 33.3441 23.9731 33.3441C23.5093 33.3441 23.1744 33.2019 22.9488 33.035L22.6332 33.5351C23.0004 33.7947 23.4643 33.9185 23.9665 33.9185C24.8559 33.9185 25.3713 33.5167 25.3713 32.9544C25.3713 32.4352 24.9657 32.1636 24.2954 32.071L23.9798 32.0271C23.6899 31.9903 23.4576 31.9352 23.4576 31.7371C23.4576 31.5207 23.6767 31.3912 24.0439 31.3912C24.437 31.3912 24.8175 31.5334 25.0041 31.6444L25.2939 31.1253ZM33.1227 31.2491C33.296 30.9895 33.5475 30.8162 33.9339 30.8162C34.0696 30.8162 34.2629 30.8409 34.4111 30.8968L34.2046 31.5023C34.063 31.4464 33.9214 31.428 33.7857 31.428C33.3477 31.428 33.1286 31.6996 33.1286 32.1884V33.8442H32.459V30.8905H33.1227V31.2491ZM28.2194 30.8905H27.1243V29.9943H26.4473V30.8905H25.8227V31.4775H26.4473V32.825C26.4473 33.5103 26.7246 33.9185 27.5166 33.9185C27.8072 33.9185 28.142 33.8322 28.3543 33.69L28.1611 33.1397C27.9613 33.2508 27.7423 33.3066 27.5682 33.3066C27.2334 33.3066 27.1243 33.1086 27.1243 32.8122V31.4775H28.2194V30.8905ZM18.2069 31.9903V33.8442H17.5299V32.2004C17.5299 31.6996 17.3109 31.4216 16.8537 31.4216C16.409 31.4216 16.1 31.694 16.1 32.2068V33.8442H15.423V32.2004C15.423 31.6996 15.1981 31.4216 14.7534 31.4216C14.2955 31.4216 13.999 31.694 13.999 32.2068V33.8442H13.3228V30.8905H13.9931V31.2547C14.2446 30.9088 14.5661 30.8162 14.895 30.8162C15.3655 30.8162 15.7003 31.0142 15.9127 31.3417C16.1966 30.9272 16.6022 30.8098 16.9953 30.8162C17.7431 30.8226 18.2069 31.2922 18.2069 31.9903Z" fill="#0D0D0D"/>
<path d="M35.2207 25.8717H25.0718V8.37842H35.2207V25.8717Z" fill="#FF5F00"/>
<path d="M25.7156 17.1252C25.7156 13.5766 27.4479 10.4156 30.1455 8.37855C28.1728 6.88895 25.6831 5.99986 22.9774 5.99986C16.5718 5.99986 11.3794 10.9808 11.3794 17.1252C11.3794 23.2696 16.5718 28.2505 22.9774 28.2505C25.6831 28.2505 28.1728 27.3614 30.1455 25.8718C27.4479 23.8347 25.7156 20.6738 25.7156 17.1252Z" fill="#EB001B"/>
<path d="M48.9123 17.1252C48.9123 23.2696 43.7199 28.2505 37.3143 28.2505C34.6086 28.2505 32.1189 27.3614 30.1455 25.8718C32.8439 23.8347 34.5762 20.6738 34.5762 17.1252C34.5762 13.5766 32.8439 10.4156 30.1455 8.37855C32.1189 6.88895 34.6086 5.99986 37.3143 5.99986C43.7199 5.99986 48.9123 10.9808 48.9123 17.1252Z" fill="#F79E1B"/>
</svg>
