<svg width="32" height="32" viewBox="0 0 32 32" fill="none" xmlns="http://www.w3.org/2000/svg">
<path d="M11.0027 18.3293L5.88433 23.4477C5.5307 23.8014 5.33203 24.281 5.33203 24.7811C5.33203 25.2812 5.5307 25.7608 5.88433 26.1145C6.23797 26.4681 6.7176 26.6668 7.21771 26.6668C7.71782 26.6668 8.19745 26.4681 8.55108 26.1145L13.6695 20.9961L11.0027 18.3293Z" fill="#1A9449"/>
<path d="M24.9755 7.0215C23.8919 5.93803 22.4223 5.32935 20.89 5.32935C19.3577 5.32935 17.8881 5.93803 16.8045 7.0215C15.0898 8.73622 12.7475 15.812 12.4862 16.6129L12.3164 17.1312L14.8552 19.6699L15.3627 19.5179C16.1343 19.2877 22.9621 17.2067 24.9719 15.196C26.0554 14.1124 26.6641 12.6428 26.6641 11.1105C26.6641 9.57819 26.0554 8.10862 24.9719 7.02505L24.9755 7.0215ZM21.5976 11.8119C19.6977 13.4794 17.689 15.0188 15.585 16.42C17.0043 14.3287 18.541 12.3194 20.1878 10.4021C21.8554 8.73444 23.2768 8.23932 23.6403 8.23932C23.6533 8.23824 23.6664 8.23824 23.6794 8.23932C23.6848 8.24554 23.6919 8.24909 23.6981 8.25532C23.8003 8.58066 23.347 10.0589 21.5914 11.8154L21.5976 11.8119ZM18.0579 8.28198C18.5001 7.82638 19.0477 7.4868 19.6524 7.2933C20.2571 7.0998 20.9002 7.05835 21.5247 7.17261C20.5691 7.70409 19.6944 8.36952 18.9273 9.14868C17.6954 10.5247 16.5478 11.9739 15.4907 13.4884C16.3761 11.2039 17.3823 8.95756 18.0579 8.28198ZM23.715 13.9391C22.851 14.8031 20.5344 15.8147 18.3948 16.6147C19.957 15.5351 21.4449 14.3516 22.8483 13.0724C23.6273 12.305 24.2927 11.4304 24.8244 10.4749C24.9386 11.0995 24.8972 11.7425 24.7037 12.3472C24.5102 12.9519 24.1706 13.4996 23.715 13.9417V13.9391Z" fill="#1A9449"/>
</svg>
