<svg width="62" height="40" viewBox="0 0 62 40" fill="none" xmlns="http://www.w3.org/2000/svg">
<rect x="0.5" y="0.5" width="60.25" height="39" rx="3.5" fill="white" stroke="#F3F3F3"/>
<path fill-rule="evenodd" clip-rule="evenodd" d="M27.9202 20.2562L28.1868 18.6477L27.5928 18.6346H24.7563L26.7276 6.76505C26.7337 6.72911 26.7536 6.69575 26.7826 6.67201C26.8117 6.64827 26.8489 6.63525 26.8877 6.63525H31.6704C33.2583 6.63525 34.3541 6.94897 34.9261 7.56826C35.1943 7.85879 35.3651 8.16246 35.4478 8.49653C35.5345 8.84713 35.5359 9.26596 35.4514 9.77689L35.4453 9.81405V10.1415L35.7135 10.2858C35.9393 10.3996 36.1188 10.5298 36.2565 10.6788C36.4859 10.9273 36.6343 11.2431 36.697 11.6173C36.7618 12.0022 36.7404 12.4604 36.6343 12.979C36.5119 13.5755 36.314 14.0951 36.0468 14.5202C35.8012 14.9119 35.4881 15.2369 35.1163 15.4886C34.7614 15.7279 34.3398 15.9095 33.8631 16.0257C33.401 16.1399 32.8743 16.1975 32.2966 16.1975H31.9244C31.6583 16.1975 31.3998 16.2886 31.1968 16.4517C30.9933 16.6183 30.8588 16.8459 30.8175 17.0947L30.7894 17.2396L30.3182 20.0747L30.2969 20.1787C30.2912 20.2117 30.2815 20.2281 30.2672 20.2392C30.2545 20.2494 30.2362 20.2562 30.2183 20.2562H27.9202" fill="#28356A"/>
<path fill-rule="evenodd" clip-rule="evenodd" d="M35.9676 9.85205C35.9535 9.93872 35.9371 10.0273 35.9188 10.1183C35.2881 13.1936 33.1301 14.256 30.3742 14.256H28.971C28.6339 14.256 28.3498 14.4883 28.2974 14.8041L27.3755 20.3575C27.3414 20.5649 27.5096 20.7517 27.7299 20.7517H30.2187C30.5133 20.7517 30.7637 20.5484 30.8101 20.2723L30.8345 20.1523L31.3032 17.3283L31.3333 17.1734C31.3791 16.8965 31.6301 16.693 31.9247 16.693H32.2969C34.7082 16.693 36.5959 15.7634 37.1476 13.073C37.378 11.9492 37.2587 11.0108 36.6489 10.3508C36.4644 10.1518 36.2354 9.9866 35.9676 9.85205" fill="#298FC2"/>
<path fill-rule="evenodd" clip-rule="evenodd" d="M35.3079 9.60218C35.2114 9.57546 35.112 9.55132 35.0101 9.52948C34.9075 9.50819 34.8025 9.48934 34.6944 9.47279C34.3161 9.41474 33.9015 9.38721 33.4574 9.38721H29.7087C29.6163 9.38721 29.5286 9.40701 29.4502 9.44282C29.2773 9.52175 29.1489 9.67719 29.1177 9.86748L28.3202 14.6642L28.2974 14.8041C28.3498 14.4883 28.6339 14.256 28.9709 14.256H30.3742C33.1301 14.256 35.288 13.193 35.9187 10.1183C35.9376 10.0273 35.9534 9.93868 35.9676 9.85202C35.808 9.77159 35.6352 9.70282 35.4491 9.64423C35.4031 9.62972 35.3557 9.61575 35.3079 9.60218" fill="#22284F"/>
<path fill-rule="evenodd" clip-rule="evenodd" d="M29.1174 9.86713C29.1486 9.67684 29.277 9.5214 29.4499 9.44301C29.5289 9.40707 29.616 9.38726 29.7084 9.38726H33.4571C33.9011 9.38726 34.3158 9.41493 34.6941 9.47298C34.8022 9.48939 34.9072 9.50838 35.0097 9.52968C35.1117 9.55138 35.2111 9.57566 35.3075 9.60224C35.3554 9.6158 35.4028 9.62991 35.4492 9.64388C35.6353 9.70247 35.8083 9.77178 35.9678 9.85167C36.1555 8.71521 35.9662 7.94143 35.3192 7.24076C34.6058 6.46929 33.3184 6.13916 31.671 6.13916H26.8881C26.5516 6.13916 26.2645 6.3715 26.2125 6.68779L24.2204 18.6794C24.1812 18.9166 24.3738 19.1306 24.6258 19.1306H27.5785L29.1174 9.86713" fill="#28356A"/>
<path fill-rule="evenodd" clip-rule="evenodd" d="M13.8283 23.521H10.3412C10.1025 23.521 9.89955 23.6857 9.86227 23.9094L8.45189 32.4011C8.4239 32.5687 8.56058 32.7197 8.73954 32.7197H10.4043C10.6429 32.7197 10.8459 32.5551 10.8832 32.3309L11.2635 30.0405C11.3002 29.8163 11.5036 29.6517 11.7418 29.6517H12.8457C15.1427 29.6517 16.4684 28.5961 16.8148 26.5043C16.9707 25.5891 16.8213 24.8701 16.37 24.3665C15.8744 23.8136 14.9953 23.521 13.8283 23.521ZM14.2305 26.6225C14.0399 27.8107 13.0838 27.8107 12.1594 27.8107H11.6331L12.0023 25.5915C12.0243 25.4574 12.1466 25.3587 12.2894 25.3587H12.5306C13.1604 25.3587 13.7544 25.3587 14.0613 25.6995C14.2444 25.9028 14.3004 26.205 14.2305 26.6225V26.6225Z" fill="#28356A"/>
<path fill-rule="evenodd" clip-rule="evenodd" d="M24.3411 26.5198H22.6712C22.529 26.5198 22.406 26.6185 22.3841 26.7527L22.3101 27.1962L22.1935 27.0355C21.832 26.5372 21.0257 26.3706 20.2212 26.3706C18.3758 26.3706 16.7997 27.6979 16.4928 29.5597C16.3333 30.4884 16.5601 31.3765 17.1149 31.9958C17.6238 32.5652 18.3519 32.8025 19.2182 32.8025C20.7051 32.8025 21.5295 31.8946 21.5295 31.8946L21.4551 32.3353C21.4271 32.5037 21.5638 32.6548 21.7417 32.6548H23.2458C23.485 32.6548 23.687 32.4902 23.7247 32.266L24.6272 26.8384C24.6557 26.6713 24.5195 26.5198 24.3411 26.5198ZM22.0134 29.6062C21.8523 30.5121 21.0951 31.1203 20.1294 31.1203C19.6445 31.1203 19.257 30.9726 19.0081 30.6928C18.7613 30.4149 18.6676 30.0192 18.746 29.5786C18.8965 28.6804 19.6663 28.0523 20.6174 28.0523C21.0916 28.0523 21.4771 28.202 21.731 28.4842C21.9854 28.7694 22.0863 29.1675 22.0134 29.6062V29.6062Z" fill="#28356A"/>
<path fill-rule="evenodd" clip-rule="evenodd" d="M33.106 26.6558H31.4279C31.2677 26.6558 31.1174 26.7313 31.0267 26.8577L28.7122 30.0951L27.7312 26.984C27.6695 26.7894 27.4804 26.6558 27.2661 26.6558H25.6172C25.4167 26.6558 25.2776 26.8417 25.3413 27.0209L27.1897 32.1719L25.452 34.5015C25.3153 34.685 25.453 34.9373 25.6891 34.9373H27.3651C27.5242 34.9373 27.673 34.8636 27.7633 34.7398L33.3445 27.0891C33.4782 26.9061 33.341 26.6558 33.106 26.6558" fill="#28356A"/>
<path fill-rule="evenodd" clip-rule="evenodd" d="M38.7003 23.521H35.2127C34.9746 23.521 34.7716 23.6857 34.7343 23.9094L33.324 32.4011C33.296 32.5687 33.4326 32.7197 33.6106 32.7197H35.4003C35.5664 32.7197 35.7087 32.6045 35.7347 32.4476L36.135 30.0405C36.1717 29.8163 36.3752 29.6517 36.6133 29.6517H37.7168C40.0142 29.6517 41.3395 28.5961 41.6863 26.5043C41.8428 25.5891 41.6924 24.8701 41.2411 24.3665C40.7459 23.8136 39.8674 23.521 38.7003 23.521ZM39.1026 26.6225C38.9124 27.8107 37.9563 27.8107 37.0314 27.8107H36.5058L36.8754 25.5915C36.8973 25.4574 37.0187 25.3587 37.1619 25.3587H37.4031C38.0323 25.3587 38.6269 25.3587 38.9338 25.6995C39.1169 25.9028 39.1724 26.205 39.1026 26.6225V26.6225Z" fill="#298FC2"/>
<path fill-rule="evenodd" clip-rule="evenodd" d="M49.2109 26.5198H47.542C47.3988 26.5198 47.2769 26.6185 47.2555 26.7527L47.1815 27.1962L47.0643 27.0355C46.7028 26.5372 45.8971 26.3706 45.0925 26.3706C43.2472 26.3706 41.6717 27.6979 41.3648 29.5597C41.2057 30.4884 41.4315 31.3765 41.9862 31.9958C42.4962 32.5652 43.2232 32.8025 44.0896 32.8025C45.5764 32.8025 46.4009 31.8946 46.4009 31.8946L46.3265 32.3353C46.2985 32.5037 46.435 32.6548 46.6141 32.6548H48.1178C48.3558 32.6548 48.5588 32.4902 48.5961 32.266L49.499 26.8384C49.5266 26.6713 49.3899 26.5198 49.2109 26.5198ZM46.8833 29.6062C46.7232 30.5121 45.965 31.1203 44.9992 31.1203C44.5153 31.1203 44.1268 30.9726 43.8779 30.6928C43.6312 30.4149 43.5384 30.0192 43.6158 29.5786C43.7673 28.6804 44.5362 28.0523 45.4872 28.0523C45.9614 28.0523 46.3469 28.202 46.6008 28.4842C46.8562 28.7694 46.9572 29.1675 46.8833 29.6062V29.6062Z" fill="#298FC2"/>
<path fill-rule="evenodd" clip-rule="evenodd" d="M51.0408 23.7544L49.6096 32.4015C49.5816 32.5691 49.7182 32.7201 49.8961 32.7201H51.3351C51.5743 32.7201 51.7771 32.5555 51.8138 32.3313L53.2252 23.8401C53.2533 23.6725 53.1166 23.521 52.9387 23.521H51.3275C51.1852 23.5214 51.0628 23.6203 51.0408 23.7544" fill="#298FC2"/>
</svg>
