<svg width="106" height="107" viewBox="0 0 106 107" fill="none" xmlns="http://www.w3.org/2000/svg">
<path d="M52.8676 104.064C42.6612 104.064 33.1133 101.101 25.0469 95.8335" stroke="#1A9449" stroke-width="4" stroke-miterlimit="10" stroke-linecap="round" stroke-linejoin="round"/>
<path d="M90.7298 18.627C98.9608 27.6811 103.899 39.8629 103.899 53.0325C103.899 81.1825 81.0172 104.065 52.8672 104.065" stroke="#1A9449" stroke-width="4" stroke-miterlimit="10" stroke-linecap="round" stroke-linejoin="round"/>
<path d="M52.8672 2C59.2874 2 65.3783 3.15234 70.9754 5.2924" stroke="#1A9449" stroke-width="4" stroke-miterlimit="10" stroke-linecap="round" stroke-linejoin="round"/>
<path d="M8.42017 77.8898C4.30467 70.4819 2 62.0863 2 53.0322C2 24.8822 24.8822 2 53.0322 2" stroke="#1A9449" stroke-width="4" stroke-miterlimit="10" stroke-linecap="round" stroke-linejoin="round"/>
<path d="M84.146 21.7545C88.6919 21.7545 92.377 18.0693 92.377 13.5235C92.377 8.97762 88.6919 5.29248 84.146 5.29248C79.6002 5.29248 75.915 8.97762 75.915 13.5235C75.915 18.0693 79.6002 21.7545 84.146 21.7545Z" stroke="#1A9449" stroke-width="4" stroke-miterlimit="10" stroke-linecap="round" stroke-linejoin="round"/>
<path d="M13.3594 92.5411C17.9053 92.5411 21.5904 88.856 21.5904 84.3101C21.5904 79.7642 17.9053 76.0791 13.3594 76.0791C8.81356 76.0791 5.12842 79.7642 5.12842 84.3101C5.12842 88.856 8.81356 92.5411 13.3594 92.5411Z" stroke="#1A9449" stroke-width="4" stroke-miterlimit="10" stroke-linecap="round" stroke-linejoin="round"/>
<path d="M52.8672 46.4473V85.9561" stroke="#1A9449" stroke-width="4" stroke-miterlimit="10" stroke-linecap="round" stroke-linejoin="round"/>
<path d="M61.0992 36.5704C61.0992 29.3271 52.8682 20.1084 52.8682 20.1084C52.8682 20.1084 44.6372 29.3271 44.6372 36.5704C44.6372 43.8137 48.2588 46.4476 52.8682 46.4476C57.4776 46.4476 61.0992 43.8137 61.0992 36.5704Z" stroke="#1A9449" stroke-width="4" stroke-miterlimit="10" stroke-linecap="round" stroke-linejoin="round"/>
<path d="M45.7914 42.3317C40.8528 40.1917 35.4203 39.5332 35.4203 39.5332C35.4203 39.5332 35.0911 50.892 39.2066 56.8183" stroke="#1A9449" stroke-width="4" stroke-miterlimit="10" stroke-linecap="round" stroke-linejoin="round"/>
<path d="M52.87 47.435C52.7054 47.2704 52.5408 46.9411 52.3761 46.7765C52.2115 46.6119 52.2115 46.6119 52.0469 46.4473" stroke="#1A9449" stroke-width="4" stroke-miterlimit="10" stroke-linecap="round" stroke-linejoin="round"/>
<path d="M66.5301 56.6537C70.6456 50.7274 70.3164 39.3687 70.3164 39.3687C70.3164 39.3687 65.0485 40.0271 59.9453 42.1672" stroke="#1A9449" stroke-width="4" stroke-miterlimit="10" stroke-linecap="round" stroke-linejoin="round"/>
<path d="M52.8672 47.435C53.0318 47.2704 53.1964 46.9411 53.361 46.7765C53.5256 46.6119 53.5257 46.6119 53.6903 46.4473" stroke="#1A9449" stroke-width="4" stroke-miterlimit="10" stroke-linecap="round" stroke-linejoin="round"/>
<path d="M52.8684 63.8974C52.7037 63.7327 52.5391 63.4035 52.3745 63.2389C49.4114 59.6172 43.3204 57.6418 39.3695 56.8187C37.0648 56.3248 35.5833 55.9956 35.5833 55.9956C35.5833 55.9956 35.254 68.3421 39.8634 73.9392C44.4728 79.5363 49.0821 79.0424 52.5391 76.2439C52.7037 76.0792 52.8684 75.9146 53.033 75.9146" stroke="#1A9449" stroke-width="4" stroke-miterlimit="10" stroke-linecap="round" stroke-linejoin="round"/>
<path d="M52.8678 75.7496C53.0324 75.9142 53.197 76.0788 53.197 76.0788C56.654 79.042 61.0987 79.3712 65.8727 73.7741C70.6467 68.1771 70.1528 55.8306 70.1528 55.8306C70.1528 55.8306 68.5067 55.9952 66.3666 56.6537C62.4157 57.6414 56.3248 59.6168 53.197 63.0738C53.0324 63.2385 52.8677 63.5677 52.7031 63.7323" stroke="#1A9449" stroke-width="4" stroke-miterlimit="10" stroke-linecap="round" stroke-linejoin="round"/>
</svg>
