<svg width="16" height="16" viewBox="0 0 16 16" fill="none" xmlns="http://www.w3.org/2000/svg">
<mask id="path-1-inside-1_332_1517" fill="white">
<path fill-rule="evenodd" clip-rule="evenodd" d="M8 16C12.4183 16 16 12.4183 16 8C16 3.58172 12.4183 0 8 0C3.58172 0 0 3.58172 0 8C0 12.4183 3.58172 16 8 16ZM9 4.99998C9 5.55227 8.55228 5.99998 8 5.99998C7.44772 5.99998 7 5.55227 7 4.99998C7 4.4477 7.44772 3.99998 8 3.99998C8.55228 3.99998 9 4.4477 9 4.99998ZM7 7.99998C7 7.4477 7.44772 6.99998 8 6.99998C8.55228 6.99998 9 7.4477 9 7.99998V11C9 11.5523 8.55228 12 8 12C7.44772 12 7 11.5523 7 11V7.99998Z"/>
</mask>
<path fill-rule="evenodd" clip-rule="evenodd" d="M8 16C12.4183 16 16 12.4183 16 8C16 3.58172 12.4183 0 8 0C3.58172 0 0 3.58172 0 8C0 12.4183 3.58172 16 8 16ZM9 4.99998C9 5.55227 8.55228 5.99998 8 5.99998C7.44772 5.99998 7 5.55227 7 4.99998C7 4.4477 7.44772 3.99998 8 3.99998C8.55228 3.99998 9 4.4477 9 4.99998ZM7 7.99998C7 7.4477 7.44772 6.99998 8 6.99998C8.55228 6.99998 9 7.4477 9 7.99998V11C9 11.5523 8.55228 12 8 12C7.44772 12 7 11.5523 7 11V7.99998Z" fill="#71717C"/>
<path d="M15 8C15 11.866 11.866 15 8 15V17C12.9706 17 17 12.9706 17 8H15ZM8 1C11.866 1 15 4.13401 15 8H17C17 3.02944 12.9706 -1 8 -1V1ZM1 8C1 4.13401 4.13401 1 8 1V-1C3.02944 -1 -1 3.02944 -1 8H1ZM8 15C4.13401 15 1 11.866 1 8H-1C-1 12.9706 3.02944 17 8 17V15ZM8 6.99998C9.10457 6.99998 10 6.10455 10 4.99998H8V6.99998ZM6 4.99998C6 6.10455 6.89543 6.99998 8 6.99998V4.99998H6ZM8 2.99998C6.89543 2.99998 6 3.89542 6 4.99998H8V2.99998ZM10 4.99998C10 3.89542 9.10457 2.99998 8 2.99998V4.99998H10ZM8 5.99998C6.89543 5.99998 6 6.89542 6 7.99998H8V5.99998ZM10 7.99998C10 6.89541 9.10457 5.99998 8 5.99998V7.99998H10ZM10 11V7.99998H8V11H10ZM8 13C9.10457 13 10 12.1046 10 11H8V13ZM6 11C6 12.1046 6.89543 13 8 13V11H6ZM6 7.99998V11H8V7.99998H6Z" fill="#71717C" mask="url(#path-1-inside-1_332_1517)"/>
</svg>
