<svg width="24" height="24" viewBox="0 0 24 24" fill="none" xmlns="http://www.w3.org/2000/svg">
<mask id="path-1-inside-1_88_9845" fill="white">
<path fill-rule="evenodd" clip-rule="evenodd" d="M22 12C22 17.5228 17.5228 22 12 22C6.47715 22 2 17.5228 2 12C2 6.47715 6.47715 2 12 2C17.5228 2 22 6.47715 22 12ZM15.5355 14.1213C15.9261 14.5118 15.9261 15.145 15.5355 15.5355C15.145 15.9261 14.5118 15.9261 14.1213 15.5355L12 13.4142L9.87868 15.5355C9.48816 15.9261 8.85499 15.9261 8.46447 15.5355C8.07394 15.145 8.07394 14.5118 8.46447 14.1213L10.5858 12L8.46447 9.87868C8.07394 9.48816 8.07394 8.85499 8.46447 8.46447C8.85499 8.07394 9.48816 8.07394 9.87868 8.46447L12 10.5858L14.1213 8.46447C14.5118 8.07394 15.145 8.07394 15.5355 8.46447C15.9261 8.85499 15.9261 9.48816 15.5355 9.87868L13.4142 12L15.5355 14.1213Z"/>
</mask>
<path fill-rule="evenodd" clip-rule="evenodd" d="M22 12C22 17.5228 17.5228 22 12 22C6.47715 22 2 17.5228 2 12C2 6.47715 6.47715 2 12 2C17.5228 2 22 6.47715 22 12ZM15.5355 14.1213C15.9261 14.5118 15.9261 15.145 15.5355 15.5355C15.145 15.9261 14.5118 15.9261 14.1213 15.5355L12 13.4142L9.87868 15.5355C9.48816 15.9261 8.85499 15.9261 8.46447 15.5355C8.07394 15.145 8.07394 14.5118 8.46447 14.1213L10.5858 12L8.46447 9.87868C8.07394 9.48816 8.07394 8.85499 8.46447 8.46447C8.85499 8.07394 9.48816 8.07394 9.87868 8.46447L12 10.5858L14.1213 8.46447C14.5118 8.07394 15.145 8.07394 15.5355 8.46447C15.9261 8.85499 15.9261 9.48816 15.5355 9.87868L13.4142 12L15.5355 14.1213Z" fill="#71717C"/>
<path d="M14.1213 15.5355L14.8284 14.8284L14.8284 14.8284L14.1213 15.5355ZM12 13.4142L12.7071 12.7071L12 12L11.2929 12.7071L12 13.4142ZM9.87868 15.5355L9.17157 14.8284H9.17157L9.87868 15.5355ZM8.46447 15.5355L9.17157 14.8284L9.17157 14.8284L8.46447 15.5355ZM8.46447 14.1213L9.17157 14.8284L9.17157 14.8284L8.46447 14.1213ZM10.5858 12L11.2929 12.7071L12 12L11.2929 11.2929L10.5858 12ZM8.46447 9.87868L7.75736 10.5858L8.46447 9.87868ZM8.46447 8.46447L9.17157 9.17157L9.17157 9.17157L8.46447 8.46447ZM9.87868 8.46447L10.5858 7.75736L9.87868 8.46447ZM12 10.5858L11.2929 11.2929L12 12L12.7071 11.2929L12 10.5858ZM14.1213 8.46447L14.8284 9.17157L14.8284 9.17157L14.1213 8.46447ZM15.5355 8.46447L14.8284 9.17157L14.8284 9.17157L15.5355 8.46447ZM15.5355 9.87868L14.8284 9.17157L15.5355 9.87868ZM13.4142 12L12.7071 11.2929L12 12L12.7071 12.7071L13.4142 12ZM12 23C18.0751 23 23 18.0751 23 12H21C21 16.9706 16.9706 21 12 21V23ZM1 12C1 18.0751 5.92487 23 12 23V21C7.02944 21 3 16.9706 3 12H1ZM12 1C5.92487 1 1 5.92487 1 12H3C3 7.02944 7.02944 3 12 3V1ZM23 12C23 5.92487 18.0751 1 12 1V3C16.9706 3 21 7.02944 21 12H23ZM16.2426 16.2426C17.0237 15.4616 17.0237 14.1953 16.2426 13.4142L14.8284 14.8284L16.2426 16.2426ZM13.4142 16.2426C14.1953 17.0237 15.4616 17.0237 16.2426 16.2426L14.8284 14.8284V14.8284L13.4142 16.2426ZM11.2929 14.1213L13.4142 16.2426L14.8284 14.8284L12.7071 12.7071L11.2929 14.1213ZM11.2929 12.7071L9.17157 14.8284L10.5858 16.2426L12.7071 14.1213L11.2929 12.7071ZM9.17157 14.8284L9.17157 14.8284L7.75736 16.2426C8.53841 17.0237 9.80474 17.0237 10.5858 16.2426L9.17157 14.8284ZM9.17157 14.8284V14.8284L7.75736 13.4142C6.97631 14.1953 6.97631 15.4616 7.75736 16.2426L9.17157 14.8284ZM9.17157 14.8284L11.2929 12.7071L9.87868 11.2929L7.75736 13.4142L9.17157 14.8284ZM7.75736 10.5858L9.87868 12.7071L11.2929 11.2929L9.17157 9.17157L7.75736 10.5858ZM7.75736 7.75736C6.97631 8.53841 6.97631 9.80474 7.75736 10.5858L9.17157 9.17157H9.17157L7.75736 7.75736ZM10.5858 7.75736C9.80474 6.97631 8.53841 6.97631 7.75736 7.75736L9.17157 9.17157H9.17157L10.5858 7.75736ZM12.7071 9.87868L10.5858 7.75736L9.17157 9.17157L11.2929 11.2929L12.7071 9.87868ZM12.7071 11.2929L14.8284 9.17157L13.4142 7.75736L11.2929 9.87868L12.7071 11.2929ZM14.8284 9.17157H14.8284L16.2426 7.75736C15.4616 6.97631 14.1953 6.97631 13.4142 7.75736L14.8284 9.17157ZM14.8284 9.17157V9.17157L16.2426 10.5858C17.0237 9.80474 17.0237 8.53841 16.2426 7.75736L14.8284 9.17157ZM14.8284 9.17157L12.7071 11.2929L14.1213 12.7071L16.2426 10.5858L14.8284 9.17157ZM16.2426 13.4142L14.1213 11.2929L12.7071 12.7071L14.8284 14.8284L16.2426 13.4142Z" fill="#71717C" mask="url(#path-1-inside-1_88_9845)"/>
</svg>
