<svg width="80" height="80" viewBox="0 0 80 80" fill="none" xmlns="http://www.w3.org/2000/svg">
<path d="M69 68H67V44.816C67.5845 44.6124 68.0912 44.2319 68.4498 43.7273C68.8083 43.2227 69.0009 42.619 69.0009 42C69.0009 41.381 68.8083 40.7773 68.4498 40.2728C68.0912 39.7682 67.5845 39.3877 67 39.184V15.816C67.6667 15.5812 68.2287 15.118 68.5866 14.5085C68.9445 13.899 69.0752 13.1824 68.9554 12.4858C68.8356 11.7892 68.4732 11.1575 67.9322 10.7025C67.3913 10.2475 66.7068 9.99867 66 10H14C13.2932 9.99867 12.6087 10.2475 12.0678 10.7025C11.5268 11.1575 11.1644 11.7892 11.0446 12.4858C10.9248 13.1824 11.0555 13.899 11.4134 14.5085C11.7713 15.118 12.3333 15.5812 13 15.816V39.184C12.4155 39.3877 11.9088 39.7682 11.5502 40.2728C11.1917 40.7773 10.9991 41.381 10.9991 42C10.9991 42.619 11.1917 43.2227 11.5502 43.7273C11.9088 44.2319 12.4155 44.6124 13 44.816V68H11C10.7348 68 10.4804 68.1054 10.2929 68.2929C10.1054 68.4804 10 68.7348 10 69C10 69.2652 10.1054 69.5196 10.2929 69.7071C10.4804 69.8947 10.7348 70 11 70H69C69.2652 70 69.5196 69.8947 69.7071 69.7071C69.8946 69.5196 70 69.2652 70 69C70 68.7348 69.8946 68.4804 69.7071 68.2929C69.5196 68.1054 69.2652 68 69 68ZM57.6 36.424C58.5133 35.5661 59.7094 35.0726 60.962 35.037C60.9198 36.2541 60.4356 37.4141 59.6 38.3C59.23 38.5893 58.8038 38.7983 58.3486 38.9136C57.8934 39.029 57.4191 39.0482 56.956 38.97C56.8811 38.5242 56.8996 38.0676 57.0105 37.6293C57.1213 37.1911 57.3221 36.7806 57.6 36.424ZM54.952 38.966C54.5037 39.0334 54.0464 39.0091 53.6077 38.8946C53.1691 38.7802 52.7582 38.5779 52.4 38.3C51.5615 37.412 51.0758 36.2486 51.034 35.028C52.345 35.138 54.546 35.638 54.979 37.657C54.9264 38.0914 54.9174 38.5299 54.952 38.966ZM62.992 33.947C62.9775 33.7025 62.8738 33.4719 62.7005 33.2988C62.5272 33.1258 62.2965 33.0223 62.052 33.008C61.888 32.998 58.09 32.808 56.093 35.108C56.058 35.148 56.031 35.192 55.993 35.233C54.444 33.333 51.593 32.904 49.942 33.008C49.6979 33.0225 49.4675 33.1259 49.2945 33.2988C49.1214 33.4716 49.0177 33.7019 49.003 33.946C48.9208 35.7292 49.3912 37.4943 50.35 39H45.65C46.607 37.494 47.0757 35.7293 46.992 33.947C46.9775 33.7025 46.8738 33.4719 46.7005 33.2988C46.5272 33.1258 46.2965 33.0223 46.052 33.008C45.889 32.998 42.09 32.808 40.093 35.108C40.058 35.148 40.031 35.192 39.998 35.233C38.449 33.333 35.598 32.904 33.947 33.008C33.7029 33.0225 33.4725 33.1259 33.2995 33.2988C33.1264 33.4716 33.0227 33.7019 33.008 33.946C32.9243 35.7287 33.393 37.4937 34.35 39H29.65C30.607 37.494 31.0757 35.7293 30.992 33.947C30.9775 33.7025 30.8738 33.4719 30.7005 33.2988C30.5272 33.1258 30.2965 33.0223 30.052 33.008C29.89 32.998 26.091 32.808 24.093 35.108C24.058 35.148 24.031 35.192 23.993 35.233C22.444 33.333 19.593 32.904 17.942 33.008C17.6979 33.0225 17.4675 33.1259 17.2945 33.2988C17.1214 33.4716 17.0177 33.7019 17.003 33.946C16.9208 35.7292 17.3912 37.4943 18.35 39H15V16H34.12C34.676 18.291 37.101 20.021 40 20.021C42.899 20.021 45.324 18.291 45.88 16H65V39H61.65C62.607 37.494 63.0757 35.7293 62.992 33.947ZM41.6 36.424C42.5133 35.5661 43.7094 35.0726 44.962 35.037C44.9198 36.2541 44.4356 37.4141 43.6 38.3C43.23 38.5893 42.8038 38.7983 42.3486 38.9136C41.8934 39.029 41.4191 39.0482 40.956 38.97C40.8811 38.5242 40.8996 38.0676 41.0105 37.6293C41.1213 37.1911 41.3221 36.7806 41.6 36.424ZM38.952 38.966C38.5037 39.0334 38.0464 39.0091 37.6077 38.8946C37.1691 38.7802 36.7582 38.5779 36.4 38.3C35.5615 37.412 35.0758 36.2486 35.034 35.028C36.345 35.138 38.546 35.638 38.979 37.657C38.9264 38.0914 38.9174 38.5299 38.952 38.966ZM25.6 36.424C26.5133 35.5661 27.7094 35.0726 28.962 35.037C28.9197 36.2541 28.4356 37.4141 27.6 38.3C27.23 38.5892 26.8038 38.7981 26.3486 38.9135C25.8933 39.0288 25.4191 39.0481 24.956 38.97C24.8811 38.5242 24.8996 38.0676 25.0105 37.6293C25.1213 37.1911 25.3221 36.7806 25.6 36.424ZM22.952 38.966C22.5037 39.0334 22.0464 39.0091 21.6077 38.8946C21.1691 38.7802 20.7582 38.5779 20.4 38.3C19.5615 37.412 19.0758 36.2486 19.034 35.028C20.345 35.138 22.546 35.638 22.979 37.657C22.9264 38.0914 22.9174 38.5299 22.952 38.966ZM36.243 16H43.757C43.3787 16.6512 42.8274 17.1848 42.1642 17.5416C41.501 17.8983 40.7518 18.0643 40 18.021C39.2482 18.0643 38.499 17.8983 37.8358 17.5416C37.1726 17.1848 36.6213 16.6512 36.243 16ZM14 12H66C66.2652 12 66.5196 12.1054 66.7071 12.2929C66.8946 12.4804 67 12.7348 67 13C67 13.2652 66.8946 13.5196 66.7071 13.7071C66.5196 13.8946 66.2652 14 66 14H14C13.7348 14 13.4804 13.8946 13.2929 13.7071C13.1054 13.5196 13 13.2652 13 13C13 12.7348 13.1054 12.4804 13.2929 12.2929C13.4804 12.1054 13.7348 12 14 12ZM14 41H66C66.2652 41 66.5196 41.1054 66.7071 41.2929C66.8946 41.4804 67 41.7348 67 42C67 42.2652 66.8946 42.5196 66.7071 42.7071C66.5196 42.8947 66.2652 43 66 43H14C13.7348 43 13.4804 42.8947 13.2929 42.7071C13.1054 42.5196 13 42.2652 13 42C13 41.7348 13.1054 41.4804 13.2929 41.2929C13.4804 41.1054 13.7348 41 14 41ZM43.757 45C43.3787 45.6512 42.8274 46.1848 42.1642 46.5416C41.501 46.8983 40.7518 47.0643 40 47.021C39.2482 47.0643 38.499 46.8983 37.8358 46.5416C37.1726 46.1848 36.6213 45.6512 36.243 45H43.757ZM27.6 67.3C27.2302 67.5896 26.804 67.7988 26.3487 67.9142C25.8934 68.0296 25.4191 68.0486 24.956 67.97C24.8813 67.5236 24.9004 67.0665 25.0119 66.6278C25.1235 66.1892 25.3251 65.7785 25.604 65.422C26.5173 64.5641 27.7134 64.0706 28.966 64.035C28.9231 65.2533 28.4375 66.4142 27.6 67.3ZM22.956 67.964C22.5072 68.0322 22.0492 68.0086 21.6098 67.8944C21.1705 67.7803 20.7589 67.578 20.4 67.3C19.5615 66.412 19.0758 65.2486 19.034 64.028C20.345 64.138 22.546 64.638 22.979 66.657C22.9264 67.0914 22.9174 67.5299 22.952 67.966L22.956 67.964ZM43.6 67.3C43.2303 67.5897 42.8041 67.799 42.3488 67.9144C41.8935 68.0297 41.4191 68.0487 40.956 67.97C40.8813 67.5236 40.9004 67.0665 41.0119 66.6278C41.1235 66.1892 41.3251 65.7785 41.604 65.422C42.5173 64.5641 43.7134 64.0706 44.966 64.035C44.9231 65.2533 44.4375 66.4142 43.6 67.3ZM38.956 67.964C38.5072 68.0322 38.0492 68.0086 37.6098 67.8944C37.1705 67.7803 36.7589 67.578 36.4 67.3C35.5615 66.412 35.0758 65.2486 35.034 64.028C36.345 64.138 38.546 64.638 38.979 66.657C38.9264 67.0914 38.9174 67.5299 38.952 67.966L38.956 67.964ZM59.6 67.3C59.2303 67.5897 58.8041 67.799 58.3488 67.9144C57.8935 68.0297 57.4191 68.0487 56.956 67.97C56.8813 67.5236 56.9004 67.0665 57.0119 66.6278C57.1235 66.1892 57.3251 65.7785 57.604 65.422C58.5173 64.5641 59.7134 64.0706 60.966 64.035C60.9231 65.2533 60.4375 66.4142 59.6 67.3ZM54.956 67.964C54.5072 68.0322 54.0492 68.0086 53.6098 67.8944C53.1705 67.7803 52.7589 67.578 52.4 67.3C51.5615 66.412 51.0758 65.2486 51.034 64.028C52.345 64.138 54.546 64.638 54.979 66.657C54.9264 67.0914 54.9174 67.5299 54.952 67.966L54.956 67.964ZM61.656 67.998C62.613 66.4921 63.0817 64.7274 62.998 62.945C62.9835 62.7005 62.8798 62.4699 62.7065 62.2968C62.5332 62.1238 62.3025 62.0203 62.058 62.006C61.894 61.997 58.096 61.806 56.099 64.106C56.064 64.146 56.037 64.19 55.999 64.231C54.45 62.331 51.599 61.903 49.948 62.006C49.7039 62.0205 49.4735 62.1239 49.3005 62.2968C49.1274 62.4696 49.0237 62.6999 49.009 62.944C48.9246 64.7272 49.393 66.493 50.35 68H45.65C46.607 66.4941 47.0757 64.7294 46.992 62.947C46.9775 62.7025 46.8738 62.4719 46.7005 62.2988C46.5272 62.1258 46.2965 62.0223 46.052 62.008C45.889 61.999 42.09 61.808 40.093 64.108C40.058 64.148 40.031 64.192 39.998 64.233C38.449 62.333 35.598 61.905 33.947 62.008C33.7029 62.0225 33.4725 62.1259 33.2995 62.2988C33.1264 62.4716 33.0227 62.7019 33.008 62.946C32.9243 64.7287 33.393 66.4937 34.35 68H29.65C30.607 66.4941 31.0757 64.7294 30.992 62.947C30.9775 62.7025 30.8738 62.4719 30.7005 62.2988C30.5272 62.1258 30.2965 62.0223 30.052 62.008C29.89 61.999 26.091 61.808 24.093 64.108C24.058 64.148 24.031 64.192 23.993 64.233C22.444 62.333 19.593 61.905 17.942 62.008C17.6979 62.0225 17.4675 62.1259 17.2945 62.2988C17.1214 62.4716 17.0177 62.7019 17.003 62.946C16.9208 64.7292 17.3912 66.4943 18.35 68H15V45H34.12C34.676 47.291 37.101 49.021 40 49.021C42.899 49.021 45.324 47.291 45.88 45H65V68L61.656 67.998Z" fill="#1A9449"/>
<path d="M35 51.0211C35.5523 51.0211 36 50.5734 36 50.0211C36 49.4688 35.5523 49.0211 35 49.0211C34.4477 49.0211 34 49.4688 34 50.0211C34 50.5734 34.4477 51.0211 35 51.0211Z" fill="#1A9449"/>
<path d="M32 55.0001C32.5523 55.0001 33 54.5524 33 54.0001C33 53.4478 32.5523 53.0001 32 53.0001C31.4477 53.0001 31 53.4478 31 54.0001C31 54.5524 31.4477 55.0001 32 55.0001Z" fill="#1A9449"/>
<path d="M29.0015 59C29.5538 59 30.0015 58.5523 30.0015 58.0001C30.0015 57.4478 29.5538 57.0001 29.0015 57.0001C28.4492 57.0001 28.0015 57.4478 28.0015 58.0001C28.0015 58.5523 28.4492 59 29.0015 59Z" fill="#1A9449"/>
<path d="M51 59C51.5523 59 52 58.5523 52 58.0001C52 57.4478 51.5523 57.0001 51 57.0001C50.4477 57.0001 50 57.4478 50 58.0001C50 58.5523 50.4477 59 51 59Z" fill="#1A9449"/>
<path d="M47.9985 55C48.5508 55 48.9985 54.5523 48.9985 54.0001C48.9985 53.4478 48.5508 53.0001 47.9985 53.0001C47.4462 53.0001 46.9985 53.4478 46.9985 54.0001C46.9985 54.5523 47.4462 55 47.9985 55Z" fill="#1A9449"/>
<path d="M40 57C40.5523 57 41 56.5523 41 56C41 55.4477 40.5523 55 40 55C39.4477 55 39 55.4477 39 56C39 56.5523 39.4477 57 40 57Z" fill="#1A9449"/>
<path d="M40 60.9998C40.5523 60.9998 41 60.5521 41 59.9998C41 59.4475 40.5523 58.9998 40 58.9998C39.4477 58.9998 39 59.4475 39 59.9998C39 60.5521 39.4477 60.9998 40 60.9998Z" fill="#1A9449"/>
<path d="M45 51.0211C45.5523 51.0211 46 50.5734 46 50.0211C46 49.4688 45.5523 49.0211 45 49.0211C44.4477 49.0211 44 49.4688 44 50.0211C44 50.5734 44.4477 51.0211 45 51.0211Z" fill="#1A9449"/>
<path d="M40 53.021C40.5523 53.021 41 52.5733 41 52.0211C41 51.4688 40.5523 51.0211 40 51.0211C39.4477 51.0211 39 51.4688 39 52.0211C39 52.5733 39.4477 53.021 40 53.021Z" fill="#1A9449"/>
<path d="M35 22.0211C35.5523 22.0211 36 21.5733 36 21.0211C36 20.4688 35.5523 20.0211 35 20.0211C34.4477 20.0211 34 20.4688 34 21.0211C34 21.5733 34.4477 22.0211 35 22.0211Z" fill="#1A9449"/>
<path d="M32 25.9998C32.5523 25.9998 33 25.5521 33 24.9998C33 24.4475 32.5523 23.9998 32 23.9998C31.4477 23.9998 31 24.4475 31 24.9998C31 25.5521 31.4477 25.9998 32 25.9998Z" fill="#1A9449"/>
<path d="M29.0015 30.0001C29.5538 30.0001 30.0015 29.5524 30.0015 29.0001C30.0015 28.4478 29.5538 28.0001 29.0015 28.0001C28.4492 28.0001 28.0015 28.4478 28.0015 29.0001C28.0015 29.5524 28.4492 30.0001 29.0015 30.0001Z" fill="#1A9449"/>
<path d="M51 30.0001C51.5523 30.0001 52 29.5524 52 29.0001C52 28.4478 51.5523 28.0001 51 28.0001C50.4477 28.0001 50 28.4478 50 29.0001C50 29.5524 50.4477 30.0001 51 30.0001Z" fill="#1A9449"/>
<path d="M47.9985 25.9998C48.5508 25.9998 48.9985 25.5521 48.9985 24.9998C48.9985 24.4475 48.5508 23.9998 47.9985 23.9998C47.4462 23.9998 46.9985 24.4475 46.9985 24.9998C46.9985 25.5521 47.4462 25.9998 47.9985 25.9998Z" fill="#1A9449"/>
<path d="M40 28.0002C40.5523 28.0002 41 27.5525 41 27.0002C41 26.4479 40.5523 26.0002 40 26.0002C39.4477 26.0002 39 26.4479 39 27.0002C39 27.5525 39.4477 28.0002 40 28.0002Z" fill="#1A9449"/>
<path d="M40 32C40.5523 32 41 31.5523 41 31C41 30.4477 40.5523 30 40 30C39.4477 30 39 30.4477 39 31C39 31.5523 39.4477 32 40 32Z" fill="#1A9449"/>
<path d="M45 22.0211C45.5523 22.0211 46 21.5733 46 21.0211C46 20.4688 45.5523 20.0211 45 20.0211C44.4477 20.0211 44 20.4688 44 21.0211C44 21.5733 44.4477 22.0211 45 22.0211Z" fill="#1A9449"/>
<path d="M40 24.0209C40.5523 24.0209 41 23.5732 41 23.0209C41 22.4687 40.5523 22.0209 40 22.0209C39.4477 22.0209 39 22.4687 39 23.0209C39 23.5732 39.4477 24.0209 40 24.0209Z" fill="#1A9449"/>
</svg>
