<svg width="24" height="24" viewBox="0 0 24 24" fill="none" xmlns="http://www.w3.org/2000/svg">
<g clip-path="url(#clip0_88_5881)">
<path d="M23.1451 8.54113L16.0641 7.51213L12.9011 1.10013C12.8092 0.943988 12.6781 0.814554 12.5207 0.724629C12.3634 0.634704 12.1853 0.587402 12.0041 0.587402C11.8229 0.587402 11.6449 0.634704 11.4875 0.724629C11.3302 0.814554 11.1991 0.943988 11.1071 1.10013L7.93814 7.51213L0.857139 8.54113C0.672479 8.56778 0.498959 8.64557 0.356195 8.76568C0.213431 8.8858 0.107117 9.04346 0.0492738 9.22084C-0.00856983 9.39822 -0.0156366 9.58825 0.0288724 9.76943C0.0733813 9.95062 0.167691 10.1157 0.301139 10.2461L5.42614 15.2401L4.21714 22.2931C4.18563 22.477 4.2062 22.6661 4.27652 22.8389C4.34684 23.0117 4.46411 23.1614 4.61507 23.2711C4.76603 23.3807 4.94465 23.446 5.13075 23.4594C5.31685 23.4729 5.50299 23.434 5.66814 23.3471L12.0011 20.0181L18.3341 23.3471C18.4993 23.434 18.6854 23.4729 18.8715 23.4594C19.0576 23.446 19.2362 23.3807 19.3872 23.2711C19.5382 23.1614 19.6554 23.0117 19.7258 22.8389C19.7961 22.6661 19.8166 22.477 19.7851 22.2931L18.5761 15.2401L23.7011 10.2461C23.8345 10.1159 23.9289 9.95091 23.9735 9.76987C24.0181 9.58883 24.0112 9.39892 23.9536 9.2216C23.896 9.04427 23.7899 8.88658 23.6474 8.76634C23.5049 8.6461 23.3316 8.56809 23.1471 8.54113H23.1451Z" fill="#1A9449"/>
</g>
<defs>
<clipPath id="clip0_88_5881">
<rect width="24" height="24" fill="white"/>
</clipPath>
</defs>
</svg>
