<svg width="61" height="40" viewBox="0 0 61 40" fill="none" xmlns="http://www.w3.org/2000/svg">
<rect x="0.75" y="0.5" width="59" height="39" rx="3.5" fill="white" stroke="#F3F3F3"/>
<path fill-rule="evenodd" clip-rule="evenodd" d="M31.9628 14.3007L29.0778 14.9127V12.6007L31.9628 12V14.3007ZM37.9628 15.5813C36.8364 15.5813 36.1123 16.1027 35.71 16.4653L35.5605 15.7627H33.0318V28.9773L35.9054 28.3767L35.9169 25.1693C36.3307 25.464 36.9399 25.8833 37.9514 25.8833C40.0088 25.8833 41.8824 24.2513 41.8824 20.6587C41.8709 17.372 39.9743 15.5813 37.9628 15.5813ZM37.2732 23.39C36.595 23.39 36.1927 23.152 35.9169 22.8573L35.9054 18.6527C36.2042 18.324 36.618 18.0973 37.2732 18.0973C38.3192 18.0973 39.0433 19.2533 39.0433 20.738C39.0433 22.2567 38.3307 23.39 37.2732 23.39ZM50.9399 20.772C50.9399 17.8707 49.5146 15.5813 46.7904 15.5813C44.0548 15.5813 42.3996 17.8707 42.3996 20.7493C42.3996 24.1607 44.3536 25.8833 47.1582 25.8833C48.5261 25.8833 49.5605 25.5773 50.3422 25.1467V22.88C49.5605 23.2653 48.664 23.5033 47.5261 23.5033C46.4111 23.5033 45.4226 23.118 45.2962 21.7807H50.9169C50.9169 21.7182 50.921 21.5763 50.9258 21.4128C50.9322 21.1907 50.9399 20.9287 50.9399 20.772ZM45.2617 19.6953C45.2617 18.4147 46.0548 17.882 46.7789 17.882C47.4801 17.882 48.2272 18.4147 48.2272 19.6953H45.2617ZM29.0778 15.774H31.9628V25.6907H29.0778V15.774ZM25.8019 15.774L25.9858 16.6127C26.664 15.3887 28.0088 15.638 28.3766 15.774V18.3807C28.0203 18.256 26.8709 18.0973 26.1927 18.97V25.6907H23.3192V15.774H25.8019ZM20.2387 13.3147L17.4341 13.904L17.4226 22.982C17.4226 24.6593 18.6985 25.8947 20.3996 25.8947C21.3422 25.8947 22.0318 25.7247 22.4111 25.5207V23.22C22.0433 23.3673 20.2272 23.8887 20.2272 22.2113V18.188H22.4111V15.774H20.2272L20.2387 13.3147ZM13.4456 18.0407C12.8364 18.0407 12.4686 18.2107 12.4686 18.6527C12.4686 19.1353 13.1016 19.3475 13.8869 19.6109C15.1672 20.0403 16.8523 20.6054 16.8594 22.6987C16.8594 24.7273 15.2157 25.8947 12.8249 25.8947C11.8364 25.8947 10.7559 25.702 9.68698 25.2487V22.5513C10.6525 23.0727 11.8709 23.458 12.8249 23.458C13.4686 23.458 13.9284 23.288 13.9284 22.7667C13.9284 22.2321 13.2422 21.9878 12.4137 21.6928C11.1521 21.2435 9.56055 20.6768 9.56055 18.7887C9.56055 16.7827 11.1123 15.5813 13.4456 15.5813C14.3996 15.5813 15.3422 15.7287 16.2962 16.1027V18.766C15.4226 18.3013 14.3192 18.0407 13.4456 18.0407Z" fill="#6772E5"/>
</svg>
