<svg width="64" height="64" viewBox="0 0 64 64" fill="none" xmlns="http://www.w3.org/2000/svg">
<path d="M43.6973 26.0959C43.7065 26.3282 43.7113 26.5609 43.7113 26.7948C43.7113 35.1998 37.3155 43.8936 26.6125 43.8936C23.3408 43.8936 20.1551 42.96 17.4003 41.1931C17.3427 41.1564 17.319 41.0852 17.3419 41.0212C17.3649 40.9575 17.4297 40.9181 17.4961 40.9257C17.9583 40.9809 18.4309 41.0083 18.8999 41.0083C21.4454 41.0083 23.8553 40.2212 25.8935 38.7281C23.4503 38.5219 21.3504 36.8685 20.5952 34.5098C20.5795 34.4607 20.5907 34.4072 20.6246 34.3685C20.6588 34.3299 20.7111 34.3129 20.761 34.3222C21.4382 34.4506 22.1266 34.4591 22.79 34.3512C20.2703 33.5682 18.4993 31.2078 18.4993 28.5206L18.5001 28.4425C18.5013 28.3914 18.5291 28.3447 18.5734 28.3193C18.6173 28.2936 18.672 28.2932 18.7163 28.3181C19.3733 28.6829 20.1004 28.9172 20.8464 29.0069C19.3983 27.8527 18.548 26.1031 18.548 24.2315C18.548 23.1518 18.8339 22.0906 19.3749 21.1627C19.3991 21.1212 19.4418 21.0946 19.4893 21.091C19.5372 21.0862 19.5835 21.1071 19.6137 21.1441C22.5775 24.7794 26.937 27.0178 31.5989 27.3056C31.5212 26.9143 31.4817 26.5109 31.4817 26.1039C31.4817 22.738 34.2201 20 37.5857 20C39.2403 20 40.8393 20.68 41.9855 21.8684C43.2774 21.6051 44.5081 21.13 45.6449 20.4561C45.6969 20.4251 45.7621 20.43 45.81 20.4674C45.8567 20.5052 45.876 20.568 45.8575 20.626C45.4722 21.8309 44.721 22.8821 43.7117 23.6409C44.6622 23.4755 45.5846 23.1961 46.4618 22.8068C46.5206 22.7798 46.5902 22.7967 46.6325 22.8462C46.6743 22.8962 46.678 22.9674 46.6417 23.0214C45.8426 24.2174 44.8523 25.2517 43.6973 26.0959Z" fill="white"/>
<path style="mix-blend-mode:soft-light" d="M43.6973 26.0959C43.7065 26.3282 43.7113 26.5609 43.7113 26.7948C43.7113 35.1998 37.3155 43.8936 26.6125 43.8936C23.3408 43.8936 20.1551 42.96 17.4003 41.1931C17.3427 41.1564 17.319 41.0852 17.3419 41.0212C17.3649 40.9575 17.4297 40.9181 17.4961 40.9257C17.9583 40.9809 18.4309 41.0083 18.8999 41.0083C21.4454 41.0083 23.8553 40.2212 25.8935 38.7281C23.4503 38.5219 21.3504 36.8685 20.5952 34.5098C20.5795 34.4607 20.5907 34.4072 20.6246 34.3685C20.6588 34.3299 20.7111 34.3129 20.761 34.3222C21.4382 34.4506 22.1266 34.4591 22.79 34.3512C20.2703 33.5682 18.4993 31.2078 18.4993 28.5206L18.5001 28.4425C18.5013 28.3914 18.5291 28.3447 18.5734 28.3193C18.6173 28.2936 18.672 28.2932 18.7163 28.3181C19.3733 28.6829 20.1004 28.9172 20.8464 29.0069C19.3983 27.8527 18.548 26.1031 18.548 24.2315C18.548 23.1518 18.8339 22.0906 19.3749 21.1627C19.3991 21.1212 19.4418 21.0946 19.4893 21.091C19.5372 21.0862 19.5835 21.1071 19.6137 21.1441C22.5775 24.7794 26.937 27.0178 31.5989 27.3056C31.5212 26.9143 31.4817 26.5109 31.4817 26.1039C31.4817 22.738 34.2201 20 37.5857 20C39.2403 20 40.8393 20.68 41.9855 21.8684C43.2774 21.6051 44.5081 21.13 45.6449 20.4561C45.6969 20.4251 45.7621 20.43 45.81 20.4674C45.8567 20.5052 45.876 20.568 45.8575 20.626C45.4722 21.8309 44.721 22.8821 43.7117 23.6409C44.6622 23.4755 45.5846 23.1961 46.4618 22.8068C46.5206 22.7798 46.5902 22.7967 46.6325 22.8462C46.6743 22.8962 46.678 22.9674 46.6417 23.0214C45.8426 24.2174 44.8523 25.2517 43.6973 26.0959Z" fill="url(#paint0_linear_1_632)" fill-opacity="0.5"/>
<defs>
<linearGradient id="paint0_linear_1_632" x1="31.9999" y1="20" x2="31.9999" y2="43.8936" gradientUnits="userSpaceOnUse">
<stop stop-opacity="0"/>
<stop offset="1"/>
</linearGradient>
</defs>
</svg>
