<svg width="48" height="48" viewBox="0 0 48 48" fill="none" xmlns="http://www.w3.org/2000/svg">
<path d="M41.546 15.1438C41.5599 15.4922 41.5671 15.8413 41.5671 16.1921C41.5671 28.7998 31.9734 41.8403 15.9189 41.8403C11.0113 41.8403 6.23284 40.44 2.10055 37.7896C2.0142 37.7346 1.97857 37.6277 2.01299 37.5317C2.04741 37.4363 2.14463 37.3771 2.24427 37.3886C2.93751 37.4713 3.64646 37.5124 4.34997 37.5124C8.16824 37.5124 11.783 36.3318 14.8404 34.0921C11.1755 33.7829 8.02573 31.3028 6.89287 27.7647C6.86932 27.691 6.88623 27.6107 6.93695 27.5528C6.98828 27.4948 7.06678 27.4694 7.14166 27.4833C8.15737 27.6759 9.18999 27.6886 10.1852 27.5268C6.40554 26.3523 3.74912 22.8118 3.74912 18.7809L3.75032 18.6638C3.75214 18.5871 3.7938 18.517 3.86023 18.479C3.92605 18.4403 4.00818 18.4397 4.0746 18.4772C5.06012 19.0243 6.15071 19.3757 7.26968 19.5104C5.09756 17.7791 3.82218 15.1547 3.82218 12.3473C3.82218 10.7277 4.25093 9.1359 5.06254 7.74398C5.09877 7.68178 5.16278 7.64193 5.23404 7.63649C5.3059 7.62924 5.37534 7.66065 5.42063 7.7162C9.86633 13.1692 16.4056 16.5267 23.3985 16.9584C23.2819 16.3715 23.2227 15.7664 23.2227 15.1559C23.2227 10.1069 27.3303 6 32.3786 6C34.8605 6 37.2591 7.01994 38.9783 8.80257C40.9162 8.40763 42.7622 7.69507 44.4675 6.68419C44.5454 6.63769 44.6433 6.64493 44.7151 6.70109C44.7852 6.75786 44.8142 6.85206 44.7864 6.93902C44.2085 8.74641 43.0816 10.3231 41.5677 11.4614C42.9935 11.2132 44.3769 10.7941 45.6928 10.2102C45.7809 10.1697 45.8854 10.1951 45.9488 10.2694C46.0116 10.3442 46.0171 10.4511 45.9627 10.5321C44.764 12.3262 43.2785 13.8775 41.546 15.1438Z" fill="#55ACEE"/>
<path style="mix-blend-mode:soft-light" d="M41.546 15.1438C41.5599 15.4922 41.5671 15.8413 41.5671 16.1921C41.5671 28.7998 31.9734 41.8403 15.9189 41.8403C11.0113 41.8403 6.23284 40.44 2.10055 37.7896C2.0142 37.7346 1.97857 37.6277 2.01299 37.5317C2.04741 37.4363 2.14463 37.3771 2.24427 37.3886C2.93751 37.4713 3.64646 37.5124 4.34997 37.5124C8.16824 37.5124 11.783 36.3318 14.8404 34.0921C11.1755 33.7829 8.02573 31.3028 6.89287 27.7647C6.86932 27.691 6.88623 27.6107 6.93695 27.5528C6.98828 27.4948 7.06678 27.4694 7.14166 27.4833C8.15737 27.6759 9.18999 27.6886 10.1852 27.5268C6.40554 26.3523 3.74912 22.8118 3.74912 18.7809L3.75032 18.6638C3.75214 18.5871 3.7938 18.517 3.86023 18.479C3.92605 18.4403 4.00818 18.4397 4.0746 18.4772C5.06012 19.0243 6.15071 19.3757 7.26968 19.5104C5.09756 17.7791 3.82218 15.1547 3.82218 12.3473C3.82218 10.7277 4.25093 9.1359 5.06254 7.74398C5.09877 7.68178 5.16278 7.64193 5.23404 7.63649C5.3059 7.62924 5.37534 7.66065 5.42063 7.7162C9.86633 13.1692 16.4056 16.5267 23.3985 16.9584C23.2819 16.3715 23.2227 15.7664 23.2227 15.1559C23.2227 10.1069 27.3303 6 32.3786 6C34.8605 6 37.2591 7.01994 38.9783 8.80257C40.9162 8.40763 42.7622 7.69507 44.4675 6.68419C44.5454 6.63769 44.6433 6.64493 44.7151 6.70109C44.7852 6.75786 44.8142 6.85206 44.7864 6.93902C44.2085 8.74641 43.0816 10.3231 41.5677 11.4614C42.9935 11.2132 44.3769 10.7941 45.6928 10.2102C45.7809 10.1697 45.8854 10.1951 45.9488 10.2694C46.0116 10.3442 46.0171 10.4511 45.9627 10.5321C44.764 12.3262 43.2785 13.8775 41.546 15.1438Z" fill="url(#paint0_linear_262_1255)" fill-opacity="0.5"/>
<defs>
<linearGradient id="paint0_linear_262_1255" x1="24" y1="6" x2="24" y2="41.8403" gradientUnits="userSpaceOnUse">
<stop stop-opacity="0"/>
<stop offset="1"/>
</linearGradient>
</defs>
</svg>
