<svg width="5" height="8" viewBox="0 0 5 8" fill="none" xmlns="http://www.w3.org/2000/svg">
<path d="M1.70711 0.292893C1.31658 -0.097631 0.683418 -0.097631 0.292893 0.292893C-0.097631 0.683418 -0.097631 1.31658 0.292893 1.70711L1.70711 0.292893ZM4 4L4.70711 4.70711C5.09763 4.31658 5.09763 3.68342 4.70711 3.29289L4 4ZM0.292893 6.29289C-0.097631 6.68342 -0.097631 7.31658 0.292893 7.70711C0.683418 8.09763 1.31658 8.09763 1.70711 7.70711L0.292893 6.29289ZM0.292893 1.70711L3.29289 4.70711L4.70711 3.29289L1.70711 0.292893L0.292893 1.70711ZM3.29289 3.29289L0.292893 6.29289L1.70711 7.70711L4.70711 4.70711L3.29289 3.29289Z" fill="#017E2F"/>
</svg>
