<svg width="5" height="8" viewBox="0 0 5 8" fill="none" xmlns="http://www.w3.org/2000/svg">
<path d="M3.29289 7.70711C3.68342 8.09763 4.31658 8.09763 4.70711 7.70711C5.09763 7.31658 5.09763 6.68342 4.70711 6.29289L3.29289 7.70711ZM1 4L0.292894 3.29289C-0.0976306 3.68342 -0.0976306 4.31658 0.292893 4.70711L1 4ZM4.70711 1.70711C5.09763 1.31658 5.09763 0.683418 4.70711 0.292894C4.31658 -0.0976305 3.68342 -0.0976306 3.29289 0.292894L4.70711 1.70711ZM4.70711 6.29289L1.70711 3.29289L0.292893 4.70711L3.29289 7.70711L4.70711 6.29289ZM1.70711 4.70711L4.70711 1.70711L3.29289 0.292894L0.292894 3.29289L1.70711 4.70711Z" fill="#017E2F"/>
</svg>
