<svg width="61" height="40" viewBox="0 0 61 40" fill="none" xmlns="http://www.w3.org/2000/svg">
<rect x="0.75" y="0.5" width="59" height="39" rx="3.5" fill="white" stroke="#F3F3F3"/>
<path d="M26.8897 27.4333H22.895L25.3936 13.4326H29.388L26.8897 27.4333Z" fill="#15195A"/>
<path d="M41.3705 13.7748C40.5826 13.4915 39.3329 13.1787 37.7876 13.1787C33.8428 13.1787 31.0649 15.0851 31.0479 17.8106C31.0151 19.8215 33.0368 20.9384 34.5488 21.6089C36.0943 22.2941 36.6196 22.7413 36.6196 23.352C36.6039 24.29 35.3708 24.7223 34.2207 24.7223C32.6259 24.7223 31.7713 24.4994 30.4727 23.9776L29.9467 23.7539L29.3877 26.8967C30.3246 27.2835 32.0507 27.6268 33.8428 27.6419C38.0343 27.6419 40.763 25.765 40.7954 22.8605C40.8113 21.2667 39.7438 20.0454 37.4423 19.0475C36.0451 18.4069 35.1895 17.9749 35.1895 17.3195C35.2059 16.7236 35.9132 16.1133 37.4903 16.1133C38.789 16.0834 39.7431 16.3663 40.466 16.6494L40.8273 16.7981L41.3705 13.7748V13.7748V13.7748Z" fill="#15195A"/>
<path fill-rule="evenodd" clip-rule="evenodd" d="M48.5209 13.4326H51.6108L54.8334 27.4331H51.1348C51.1348 27.4331 50.7728 25.8245 50.6581 25.3329H45.5293C45.381 25.7051 44.691 27.4331 44.691 27.4331H40.4995L46.433 14.5943C46.8441 13.6856 47.5681 13.4326 48.5209 13.4326ZM48.2747 18.5561C48.2747 18.5561 47.0089 21.669 46.6799 22.4734H50.0002C49.8359 21.7734 49.0795 18.4221 49.0795 18.4221L48.8003 17.2157C48.6827 17.5263 48.5127 17.9534 48.398 18.2415C48.3203 18.4368 48.268 18.5682 48.2747 18.5561Z" fill="#15195A"/>
<path fill-rule="evenodd" clip-rule="evenodd" d="M5.58675 13.4326H12.0137C12.8849 13.4621 13.5918 13.7153 13.8218 14.6095L15.2185 21.0423C15.2187 21.0427 15.2188 21.0431 15.2189 21.0435L15.6464 22.9798L19.5585 13.4326H23.7825L17.5036 27.4185H13.2794L9.71896 15.2531C8.49051 14.6022 7.08851 14.0788 5.521 13.7155L5.58675 13.4326Z" fill="#15195A"/>
</svg>
