<svg width="64" height="64" viewBox="0 0 64 64" fill="none" xmlns="http://www.w3.org/2000/svg">
<path fill-rule="evenodd" clip-rule="evenodd" d="M44.5204 21.4978C45.891 21.8669 46.9718 22.9475 47.3407 24.3183C48.0262 26.8222 47.9999 32.0415 47.9999 32.0415C47.9999 32.0415 47.9999 37.2341 47.3409 39.7382C46.9718 41.1088 45.8912 42.1896 44.5204 42.5585C42.0162 43.2177 31.9999 43.2177 31.9999 43.2177C31.9999 43.2177 22.0097 43.2177 19.4795 42.5324C18.1086 42.1632 17.0281 41.0824 16.6589 39.7118C16 37.2341 16 32.0151 16 32.0151C16 32.0151 16 26.8222 16.6589 24.3183C17.0278 22.9477 18.135 21.8406 19.4792 21.4717C21.9834 20.8125 31.9997 20.8125 31.9997 20.8125C31.9997 20.8125 42.0162 20.8125 44.5204 21.4978ZM37.1403 32.0153L28.8109 36.8127V27.218L37.1403 32.0153Z" fill="white"/>
</svg>
