<svg width="48" height="48" viewBox="0 0 48 48" fill="none" xmlns="http://www.w3.org/2000/svg">
<path d="M47.011 12.4775C46.4577 10.4213 44.8365 8.80041 42.7806 8.2467C39.0244 7.21875 23.9995 7.21875 23.9995 7.21875C23.9995 7.21875 8.97506 7.21875 5.21885 8.20752C3.2025 8.76086 1.54174 10.4216 0.988399 12.4775C0 16.2334 0 24.0226 0 24.0226C0 24.0226 0 31.8511 0.988399 35.5677C1.54211 37.6236 3.16295 39.2449 5.21922 39.7986C9.01461 40.8265 23.9999 40.8265 23.9999 40.8265C23.9999 40.8265 39.0244 40.8265 42.7806 39.8377C44.8368 39.2844 46.4577 37.6632 47.0114 35.6073C47.9998 31.8511 47.9998 24.0622 47.9998 24.0622C47.9998 24.0622 48.0393 16.2334 47.011 12.4775Z" fill="#FF0000"/>
<path d="M19.2188 31.2197L31.7128 24.0237L19.2188 16.8276V31.2197Z" fill="white"/>
</svg>
